<svg width="24" height="26" viewBox="0 0 24 26" fill="none" xmlns="http://www.w3.org/2000/svg">
<path d="M20.8874 23.3232C20.6929 24.9976 20.6929 24.9976 18.9585 24.9976C14.1465 24.9976 9.33444 24.9686 4.52244 25.0204C3.51657 25.0307 2.95569 24.8693 3.17507 23.7289C3.17835 23.5884 3.15735 23.4483 3.11298 23.3149L3.09229 23.3356H20.8998L20.8874 23.3232Z" fill="#151020"/>
<path d="M8.08623 2.67186C8.07152 2.64081 8.06041 2.60817 8.05311 2.57459C7.91859 0.995424 7.91859 0.995423 9.44187 0.995423C11.3046 0.995423 13.1673 1.0244 15.03 0.980935C15.7378 0.964377 16.1725 1.05544 15.9966 1.90194C15.8703 2.50836 16.1725 2.69256 16.7354 2.61184C17.2984 2.53113 17.6419 2.6284 17.6419 3.39832C17.6419 4.16824 17.3067 4.2262 16.7251 4.18273C16.518 4.17578 16.3106 4.18131 16.1042 4.19929C16.1001 4.13313 16.0744 4.07014 16.031 4.02002C15.9876 3.96991 15.929 3.93545 15.8641 3.92195C16.0711 2.69463 16.0276 2.62426 14.8893 2.62426C12.6126 2.62426 10.336 2.62426 8.05932 2.64082L8.08623 2.67186Z" fill="#151020"/>
<path d="M7.96436 10.5388L7.9954 4.2656L8.27481 4.09381C9.48971 3.9448 9.70082 4.58019 9.63045 5.64194C9.53938 7.00793 9.63045 8.38633 9.59733 9.7606C9.59733 10.0586 9.8043 10.485 9.27446 10.603L7.96436 10.5388Z" fill="#151020"/>
<path d="M16.0194 4.2717C16.0194 6.36208 16.0228 8.45108 16.0297 10.5387L14.5334 10.5925C14.2477 8.52282 14.4402 6.44279 14.4423 4.3669C14.4423 4.26963 14.6141 4.17442 14.7072 4.07715C15.1046 4.40416 15.591 4.14131 16.0194 4.2717Z" fill="#151020"/>
<path d="M1.6723 21.8806C3.9476e-07 21.7357 0 21.7357 0 19.9682V18.7264C0 17.0313 3.9476e-07 17.0313 1.6723 16.9278L1.64954 16.9092C1.64954 18.5649 1.64954 20.2276 1.64954 21.8971L1.6723 21.8806Z" fill="#151020"/>
<path d="M22.3276 16.9256C23.9999 17.0208 23.9999 17.0208 23.9999 18.7221V19.9639C23.9999 21.7314 23.9999 21.7314 22.3276 21.8784L22.3483 21.8991V16.9111L22.3276 16.9256Z" fill="#151020"/>
<path d="M4.77084 13.8337C4.8143 12.1965 4.8143 12.1965 6.42658 12.1779L6.40174 12.1531C6.41209 12.716 6.42037 13.2769 6.43072 13.8378L4.75635 13.8212L4.77084 13.8337Z" fill="#151020"/>
<path d="M17.5736 12.1799C19.19 12.1944 19.19 12.1944 19.2293 13.8356L19.2438 13.8211L17.5674 13.8398C17.5674 13.281 17.5819 12.7221 17.5901 12.1633L17.5736 12.1799Z" fill="#151020"/>
<path d="M3.1792 15.1149C3.18955 13.7613 3.18955 13.7613 4.77078 13.8337L4.7563 13.8213C5.15781 15.0052 4.53277 15.4233 3.48551 15.5267C3.47309 15.3115 3.53311 15.0631 3.1792 15.1149Z" fill="#151020"/>
<path d="M7.90843 4.18891C7.70159 4.17851 7.49437 4.17851 7.28753 4.18891C6.71837 4.23445 6.3541 4.18891 6.36652 3.41071C6.37894 2.67184 6.65627 2.53524 7.2689 2.61182C7.53796 2.647 7.81323 2.65735 8.08435 2.68012L8.0678 2.64493C8.0678 3.0775 7.93534 3.52041 8.15886 3.93641C8.094 3.94208 8.03325 3.97056 7.9874 4.01679C7.94155 4.06302 7.91357 4.12401 7.90843 4.18891Z" fill="#151020"/>
<path d="M20.8128 13.9599C20.8128 14.3448 20.8128 14.7298 20.8273 15.1127L19.2336 15.3673L19.244 13.8212L19.2212 13.844C19.6538 13.844 20.0946 13.7032 20.5065 13.9433C20.5996 14.0965 20.6927 14.1068 20.8128 13.9599Z" fill="#151020"/>
<path d="M17.5177 10.6277L17.5736 12.1799L17.5984 12.153C16.0234 12.2689 16.0234 12.2689 15.9116 10.8926C16.4373 10.7498 17.0437 11.0934 17.5177 10.6277Z" fill="#151020"/>
<path d="M22.3275 21.8805C22.4869 23.4803 22.4869 23.4803 20.8787 23.3292L20.8994 23.3499C20.6925 22.8636 20.7815 22.3668 20.8415 21.8722C21.3444 21.779 21.8453 21.7107 22.3399 21.9074L22.3275 21.8805Z" fill="#151020"/>
<path d="M1.6723 16.9257C1.6516 16.7187 1.64539 16.5221 1.61021 16.3255C1.47982 15.5824 1.74681 15.2513 2.52708 15.392C2.72869 15.4068 2.93129 15.3998 3.13142 15.3713C3.17075 15.4686 3.208 15.5659 3.24732 15.6652L3.12935 16.9567C2.6347 16.9836 2.14004 17.0602 1.64953 16.907L1.6723 16.9257Z" fill="#151020"/>
<path d="M20.8705 15.3672C20.9385 15.3834 21.0077 15.3945 21.0774 15.4003C22.4869 15.45 22.4869 15.45 22.3337 16.9319L22.3544 16.9112C21.866 17.0767 21.3672 16.9877 20.8725 16.9671L20.7773 16.7373C20.7773 16.3793 20.7773 16.0233 20.7773 15.6673L20.8705 15.3672Z" fill="#151020"/>
<path d="M3.11298 23.3232C1.5214 23.4805 1.5214 23.4805 1.6642 21.8744L1.64351 21.8951C2.12939 21.7454 2.64716 21.7325 3.13989 21.8579C3.22474 22.3546 3.29925 22.8513 3.08401 23.3377L3.11298 23.3232Z" fill="#151020"/>
<path d="M6.42865 12.1779C6.42865 11.7309 6.45141 11.2818 6.46176 10.8347L8.09474 10.8927C7.96228 12.2524 7.96228 12.2524 6.50315 12.1759C6.46943 12.1712 6.43618 12.1636 6.40381 12.1531L6.42865 12.1779Z" fill="#151020"/>
<path d="M17.5177 10.6278C17.0437 11.0935 16.4373 10.7499 15.9116 10.8927C15.4563 10.7727 14.8561 11.3232 14.5332 10.5926L16.0296 10.5388C16.5284 10.5285 17.0334 10.3753 17.5177 10.6278Z" fill="#4FACCE"/>
<path d="M8.0944 10.8926L6.46143 10.8346C6.84639 10.1392 7.46729 10.6483 7.96401 10.5386L9.27205 10.6111C9.00092 11.2134 8.49385 10.8243 8.0944 10.8926Z" fill="#4FACCE"/>
<path d="M20.8705 15.3674C20.8395 15.4667 20.8064 15.5743 20.7732 15.6675C20.262 15.5661 19.6204 16.1187 19.2334 15.3674L20.8271 15.1128C20.8596 15.1668 20.8873 15.2236 20.9098 15.2825C20.9181 15.3032 20.885 15.3384 20.8705 15.3674Z" fill="#4FACCE"/>
<path d="M16.0192 4.2718C15.5908 4.14141 15.1044 4.40425 14.707 4.07724C15.0382 3.65089 15.4645 3.91788 15.8578 3.92202C15.9227 3.93551 15.9813 3.96997 16.0247 4.02009C16.0681 4.07021 16.0938 4.1332 16.0979 4.19936C16.1496 4.30077 16.1186 4.32975 16.0192 4.2718Z" fill="#4FACCE"/>
<path d="M3.24725 15.6714C3.20793 15.5721 3.17067 15.4748 3.13135 15.3775C3.14791 15.2886 3.16239 15.1996 3.17895 15.1126C3.53286 15.0588 3.47284 15.3196 3.47698 15.5162C3.48112 15.7128 3.40661 15.7418 3.24725 15.6714Z" fill="#4FACCE"/>
<path d="M7.90835 4.18901C7.91226 4.12465 7.93865 4.06369 7.9829 4.01679C8.02716 3.96989 8.08647 3.94001 8.15051 3.93237C8.27883 3.93237 8.30366 3.99239 8.27055 4.10209L7.99528 4.26559C7.88766 4.32768 7.86075 4.30078 7.90835 4.18901Z" fill="#4FACCE"/>
<path d="M20.8127 13.9598C20.6989 14.1068 20.6057 14.0964 20.5146 13.9329C20.614 13.9474 20.734 13.7053 20.8127 13.9598Z" fill="#4FACCE"/>
<path d="M3.10059 23.3416C3.30755 22.8553 3.24132 22.3585 3.15647 21.8618L3.12542 21.8763H20.8916L20.8585 21.8618C20.7984 22.3585 20.7053 22.8553 20.9164 23.3416H3.10059Z" fill="#FEFEFE"/>
<path d="M8.27443 4.09364C8.30754 3.98394 8.27443 3.91771 8.15439 3.92392C7.93086 3.50999 8.05918 3.065 8.06332 2.63244C10.34 2.63244 12.6166 2.61381 14.8933 2.61588C16.0316 2.61588 16.0771 2.68625 15.8681 3.91357C15.4749 3.91357 15.0402 3.64244 14.7173 4.0688C14.6242 4.16607 14.4524 4.26128 14.4524 4.35855C14.4524 6.42824 14.2579 8.5124 14.5435 10.5842C14.8664 11.3148 15.4666 10.7642 15.9219 10.8843C16.0337 12.2606 16.0337 12.2606 17.6087 12.1447C17.6087 12.7035 17.5942 13.2623 17.5859 13.8211H17.588L9.59282 13.7942C9.59282 13.4548 9.57419 13.1154 9.60937 12.7801C9.66318 12.2751 9.43552 12.1095 8.96984 12.1592C8.55591 12.2006 8.01572 12.0081 8.00744 12.7159C8.00744 13.0864 8.03435 13.4569 8.04883 13.8273L8.06953 13.8087H6.40137L6.43034 13.8377C6.43034 13.2768 6.41172 12.7159 6.40137 12.153C6.43374 12.1635 6.46699 12.1711 6.50071 12.1757C7.94949 12.2523 7.94949 12.2523 8.0923 10.8925C8.49175 10.8242 8.99882 11.2133 9.26995 10.6111C9.79151 10.4931 9.58661 10.0667 9.59075 9.7687C9.61351 8.39443 9.53279 7.01602 9.62386 5.65004C9.6963 4.58829 9.48519 3.9529 8.27443 4.09364Z" fill="#FEFEFE"/>
<path d="M3.14775 21.864C2.65577 21.7359 2.13801 21.7459 1.65137 21.893C1.65137 20.2372 1.65137 18.5746 1.65137 16.905C2.14188 17.0582 2.63654 16.9816 3.13119 16.9547L3.11877 16.9257V21.8702L3.14775 21.864Z" fill="#FEFEFE"/>
<path d="M20.8667 16.967C21.3613 16.9877 21.8601 17.0767 22.3485 16.9111V21.8929C21.8539 21.6962 21.353 21.7645 20.8501 21.8577L20.8832 21.8701C20.8777 20.2392 20.8722 18.6048 20.8667 16.967Z" fill="#FEFEFE"/>
<path d="M3.24758 15.6716C3.40694 15.7419 3.48352 15.6922 3.47731 15.5163C4.52457 15.4128 5.14961 14.9948 4.7481 13.8109L6.43282 13.8378L6.40384 13.8088V15.4356C5.61115 15.4025 4.68394 15.15 4.78535 16.5015C4.81226 16.8492 4.54527 16.9465 4.23482 16.9403C3.86227 16.9403 3.48973 16.9403 3.11719 16.9403L3.12961 16.9692L3.24758 15.6716Z" fill="#FEFEFE"/>
<path d="M19.2441 15.3673C19.6311 16.1186 20.2789 15.5743 20.7839 15.6674C20.7839 16.0234 20.7839 16.3794 20.7839 16.7354C19.5421 17.1493 19.4283 17.1079 19.1779 15.9075C19.1639 15.7733 19.1016 15.6487 19.0026 15.5569C18.9036 15.4652 18.7747 15.4125 18.6398 15.4087C17.7312 15.2514 17.5552 15.6778 17.5697 16.5015C17.6091 18.5608 17.5697 18.5712 15.8519 18.5588C14.2127 18.5463 14.4031 18.8175 14.4031 17.0582C14.4031 15.0983 14.1423 15.4025 16.1023 15.3756C17.6711 15.359 17.6711 15.3756 17.6028 13.813L17.5884 13.8254L19.2441 13.8213V15.3673Z" fill="#FEFEFE"/>
<path d="M17.5884 13.8212C17.6567 15.3796 17.6567 15.3672 16.0879 15.3838C14.1279 15.4024 14.3907 15.1064 14.3887 17.0664C14.3887 18.8257 14.1983 18.5545 15.8374 18.5669C17.5574 18.5814 17.5946 18.5669 17.5553 16.5097C17.5408 15.6818 17.7167 15.2679 18.6253 15.4169C18.7602 15.4207 18.8892 15.4733 18.9882 15.5651C19.0871 15.6569 19.1494 15.7814 19.1634 15.9157C19.4139 17.112 19.5236 17.1575 20.7695 16.7436C20.8005 16.8222 20.8337 16.8988 20.8647 16.9754C20.8647 18.6132 20.8702 20.2503 20.8813 21.8867H3.11719V16.9257C3.48973 16.9257 3.86227 16.9257 4.23482 16.9257C4.54527 16.9257 4.81226 16.8346 4.78535 16.4869C4.68394 15.1354 5.61322 15.3879 6.40384 15.421C7.95403 15.3714 7.95403 15.3714 8.05959 13.8874C8.05959 13.8543 8.07407 13.8212 8.08028 13.7881L8.05959 13.8067L9.60357 13.7756L17.5884 13.8212ZM5.64634 20.1751C6.38935 20.32 6.36659 19.8481 6.39349 19.3244C6.42661 18.687 6.10995 18.6249 5.58839 18.6001C4.94058 18.5711 4.79156 18.8194 4.78535 19.4279C4.78328 20.0944 5.05855 20.2744 5.64841 20.1709L5.64634 20.1751Z" fill="#4FACCE"/>
<path d="M8.06755 13.8025C8.06755 13.8356 8.051 13.8687 8.04686 13.9018C7.94958 15.3858 7.94958 15.3858 6.39111 15.4355V13.8087L8.06755 13.8025Z" fill="#151020"/>
<path d="M9.59493 13.7902L8.05095 13.8212C8.03646 13.4508 8.00335 13.0803 8.00956 12.7098C8.00956 12.002 8.56423 12.1945 8.97196 12.1531C9.43764 12.1055 9.6653 12.271 9.61149 12.774C9.5763 13.1113 9.59907 13.4508 9.59493 13.7902Z" fill="#151020"/>
<path d="M5.64814 20.171C5.05828 20.2745 4.78302 20.0945 4.78716 19.4239C4.78716 18.8154 4.94238 18.567 5.59019 18.596C6.11175 18.6208 6.41806 18.6829 6.3953 19.3204C6.36839 19.844 6.39116 20.3159 5.64814 20.171Z" fill="#FEFEFE"/>
</svg>
