<svg width="24" height="22" viewBox="0 0 24 22" fill="none" xmlns="http://www.w3.org/2000/svg">
<g clip-path="url(#clip0_902_15292)">
<path d="M10.8973 1.07508V0.0996094H13.1022V1.07508C13.054 1.46148 13.0814 1.85356 13.183 2.22948L14.2047 2.28143V4.33626C14.5741 4.54983 14.9608 4.33626 15.3244 4.59023V6.62775C15.6881 6.77782 16.0171 6.45459 16.3403 6.73164L16.4038 7.66671L17.4543 7.74752V9.78504C17.8295 10.0044 18.2104 9.78503 18.5741 10.0101V12.0419C18.9435 12.2266 19.3187 12.0015 19.6073 12.2093C19.6996 12.5383 19.5495 12.8788 19.74 13.2021L20.6924 13.2482C20.8309 13.9755 20.6289 14.6912 20.8136 15.3781L21.8526 15.4531V17.5426H22.9492C22.9492 18.6624 22.9492 19.7764 22.9492 20.8904H1.01562V17.5426C1.39708 17.6144 1.78857 17.6144 2.17003 17.5426V15.4589C2.55098 15.2915 2.92039 15.5166 3.28402 15.2338V13.2309L4.27104 13.1963C4.46151 12.8442 4.27104 12.469 4.4442 12.1573L5.47161 12.0419V9.93511L6.54521 9.87162V7.75906L7.56108 7.68403C7.64165 7.31706 7.64165 6.93699 7.56108 6.57003C7.94336 6.64813 8.33857 6.63627 8.71548 6.5354V4.48633L9.7833 4.42284V2.26411H10.9088L10.8973 1.07508ZM13.0387 15.3492V6.65661H10.9319V15.3492H13.0387ZM13.0387 16.5036H10.9031V18.5931H13.0387V16.5036Z" fill="#F5D907"/>
<path d="M1.04492 20.8326H22.9785V21.9005H1.04492V20.8326Z" fill="#0D0F0E"/>
<path d="M22.9492 17.5195H21.8525V15.43L20.8136 15.355C20.6289 14.6681 20.8136 13.9524 20.6924 13.2251L19.74 13.1963C19.5495 12.8731 19.6996 12.5325 19.6072 12.2035C19.3186 11.9957 18.9435 12.2035 18.574 12.0361V10.0275C18.2104 9.78503 17.8295 10.0275 17.4543 9.80234V7.76483L16.4038 7.68402L16.3403 6.74896C16.0171 6.4719 15.688 6.79513 15.3244 6.64506V4.60754C14.9608 4.33626 14.574 4.56714 14.2046 4.35357V2.29874L13.183 2.22947C13.0814 1.85356 13.054 1.46147 13.1022 1.07507L14.17 1.18474L14.2277 2.21793L15.2898 2.26988V4.39398L16.3865 4.46901V6.59311H17.4427L17.4889 7.60321C17.8006 7.80523 18.17 7.60321 18.5279 7.74751V9.86007H19.6823V12.065H20.7155L20.7732 13.1963H21.8237V15.3608L22.9781 15.4358L22.9492 17.5195Z" fill="#0D0F0E"/>
<path d="M7.57883 6.56995C7.6594 6.93691 7.6594 7.31698 7.57883 7.68394L6.56296 7.75898V9.87153L5.48937 9.93502V12.0418L4.46195 12.1053C4.25993 12.417 4.46195 12.7922 4.28879 13.1443L3.31332 13.2078V15.2106C2.94968 15.4935 2.58028 15.2684 2.19932 15.4357V17.479C1.81787 17.5508 1.42638 17.5508 1.04492 17.479V15.4069L2.1416 15.3434V13.1962H3.22674V12.2034C3.57883 11.9725 3.9771 12.2034 4.34651 12.0187V9.93502L5.43165 9.86576V7.74166L6.51678 7.67817V6.6623L7.57883 6.56995Z" fill="#0D0F0E"/>
<path d="M9.78326 2.26416V4.42289L8.71544 4.48638V6.54699C8.33852 6.64787 7.94332 6.65972 7.56104 6.58162V4.48061L8.68081 4.42289V2.26416H9.78326Z" fill="#0D0F0E"/>
<path d="M1.06205 17.5022V20.85H0V17.6292C0.340548 17.4272 0.721501 17.6292 1.06205 17.5022Z" fill="#0D0F0E"/>
<path d="M22.9438 20.85C22.9438 19.736 22.9438 18.622 22.9438 17.5022L24.0001 17.5772V20.85H22.9438Z" fill="#0D0F0E"/>
<path d="M10.8975 1.07507V2.26411H9.77197L9.82392 1.19051L10.8975 1.07507Z" fill="#0D0F0E"/>
<path d="M13.0389 15.3491H10.9321V6.65649H13.0389V15.3491Z" fill="#0D0F0E"/>
<path d="M13.0736 16.5037V18.5931H10.938V16.5037H13.0736Z" fill="#0D0F0E"/>
</g>
<defs>
<clipPath id="clip0_902_15292">
<rect width="24" height="21.8008" fill="white" transform="translate(0 0.0996094)"/>
</clipPath>
</defs>
</svg>
