<svg width="139" height="66" viewBox="0 0 139 66" fill="none" xmlns="http://www.w3.org/2000/svg">
<g clip-path="url(#clip0_24_52505)">
<path d="M19.7997 32.999H16.4995V36.2993H19.7997V32.999Z" fill="#CAEAFF"/>
<path d="M19.7997 29.7007H16.4995V33.0009H19.7997V29.7007Z" fill="#CAEAFF"/>
<path d="M19.7997 42.8999H16.4995V46.2001H19.7997V42.8999Z" fill="#B3DDFF"/>
<path d="M19.7997 46.2002H16.4995V49.5004H19.7997V46.2002Z" fill="#B3DDFF"/>
<path d="M19.7997 39.5996H16.4995V42.8998H19.7997V39.5996Z" fill="#B3DDFF"/>
<path d="M19.7997 36.2993H16.4995V39.5996H19.7997V36.2993Z" fill="#CAEAFF"/>
<path d="M19.7997 49.5005H16.4995V52.8007H19.7997V49.5005Z" fill="#98C6F4"/>
<path d="M115.5 29.7007H112.2V33.0009H115.5V29.7007Z" fill="#CAEAFF"/>
<path d="M115.5 56.0991H112.2V59.3994H115.5V56.0991Z" fill="#B3DDFF"/>
<path d="M115.5 49.5005H112.2V52.8007H115.5V49.5005Z" fill="#B3DDFF"/>
<path d="M115.5 32.999H112.2V36.2993H115.5V32.999Z" fill="#CAEAFF"/>
<path d="M115.5 59.3994H112.2V62.6996H115.5V59.3994Z" fill="#98C6F4"/>
<path d="M115.5 39.5996H112.2V42.8998H115.5V39.5996Z" fill="#B3DDFF"/>
<path d="M115.5 36.2993H112.2V39.5996H115.5V36.2993Z" fill="#CAEAFF"/>
<path d="M115.5 42.8999H112.2V46.2001H115.5V42.8999Z" fill="#B3DDFF"/>
<path d="M115.5 46.2002H112.2V49.5004H115.5V46.2002Z" fill="#B3DDFF"/>
<path d="M118.799 42.8999H115.499V46.2001H118.799V42.8999Z" fill="#B3DDFF"/>
<path d="M118.799 46.2002H115.499V49.5004H118.799V46.2002Z" fill="#B3DDFF"/>
<path d="M118.799 49.5005H115.499V52.8007H118.799V49.5005Z" fill="#B3DDFF"/>
<path d="M118.799 39.5996H115.499V42.8998H118.799V39.5996Z" fill="#B3DDFF"/>
<path d="M118.799 29.7007H115.499V33.0009H118.799V29.7007Z" fill="#CAEAFF"/>
<path d="M19.7997 52.7993H16.4995V56.0996H19.7997V52.7993Z" fill="#98C6F4"/>
<path d="M118.799 36.2993H115.499V39.5996H118.799V36.2993Z" fill="#CAEAFF"/>
<path d="M118.799 32.999H115.499V36.2993H118.799V32.999Z" fill="#CAEAFF"/>
<path d="M118.799 52.7993H115.499V56.0996H118.799V52.7993Z" fill="#B3DDFF"/>
<path d="M115.5 62.6997H112.2V65.9999H115.5V62.6997Z" fill="#98C6F4"/>
<path d="M118.799 56.0991H115.499V59.3994H118.799V56.0991Z" fill="#B3DDFF"/>
<path d="M118.799 59.3994H115.499V62.6996H118.799V59.3994Z" fill="#98C6F4"/>
<path d="M118.799 62.6997H115.499V65.9999H118.799V62.6997Z" fill="#98C6F4"/>
<path d="M23.1 39.5996H19.7998V42.8998H23.1V39.5996Z" fill="#B3DDFF"/>
<path d="M112.2 56.0991H108.9V59.3994H112.2V56.0991Z" fill="#B3DDFF"/>
<path d="M112.2 52.7993H108.9V56.0996H112.2V52.7993Z" fill="#B3DDFF"/>
<path d="M112.2 62.6997H108.9V65.9999H112.2V62.6997Z" fill="#98C6F4"/>
<path d="M112.2 59.3994H108.9V62.6996H112.2V59.3994Z" fill="#98C6F4"/>
<path d="M112.2 49.5005H108.9V52.8007H112.2V49.5005Z" fill="#B3DDFF"/>
<path d="M108.9 62.6997H105.6V65.9999H108.9V62.6997Z" fill="#98C6F4"/>
<path d="M112.2 32.999H108.9V36.2993H112.2V32.999Z" fill="#CAEAFF"/>
<path d="M112.2 46.2002H108.9V49.5004H112.2V46.2002Z" fill="#B3DDFF"/>
<path d="M112.2 39.5996H108.9V42.8998H112.2V39.5996Z" fill="#B3DDFF"/>
<path d="M112.2 42.8999H108.9V46.2001H112.2V42.8999Z" fill="#B3DDFF"/>
<path d="M112.2 36.2993H108.9V39.5996H112.2V36.2993Z" fill="#B3DDFF"/>
<path d="M105.6 62.6997H102.299V65.9999H105.6V62.6997Z" fill="#98C6F4"/>
<path d="M98.999 62.6997H95.6987V65.9999H98.999V62.6997Z" fill="#98C6F4"/>
<path d="M102.299 62.6997H98.999V65.9999H102.299V62.6997Z" fill="#98C6F4"/>
<path d="M112.2 29.7007H108.9V33.0009H112.2V29.7007Z" fill="#CAEAFF"/>
<path d="M26.4003 39.5996H23.1001V42.8998H26.4003V39.5996Z" fill="#B3DDFF"/>
<path d="M26.4003 36.2993H23.1001V39.5996H26.4003V36.2993Z" fill="#CAEAFF"/>
<path d="M26.4003 32.999H23.1001V36.2993H26.4003V32.999Z" fill="#CAEAFF"/>
<path d="M26.4003 29.7007H23.1001V33.0009H26.4003V29.7007Z" fill="#CAEAFF"/>
<path d="M26.4003 42.8999H23.1001V46.2001H26.4003V42.8999Z" fill="#B3DDFF"/>
<path d="M26.4003 46.2002H23.1001V49.5004H26.4003V46.2002Z" fill="#B3DDFF"/>
<path d="M26.4003 52.7993H23.1001V56.0996H26.4003V52.7993Z" fill="#98C6F4"/>
<path d="M26.4003 49.5005H23.1001V52.8007H26.4003V49.5005Z" fill="#98C6F4"/>
<path d="M23.1 42.8999H19.7998V46.2001H23.1V42.8999Z" fill="#B3DDFF"/>
<path d="M23.1 32.999H19.7998V36.2993H23.1V32.999Z" fill="#CAEAFF"/>
<path d="M23.1 36.2993H19.7998V39.5996H23.1V36.2993Z" fill="#CAEAFF"/>
<path d="M23.1 29.7007H19.7998V33.0009H23.1V29.7007Z" fill="#CAEAFF"/>
<path d="M23.1 49.5005H19.7998V52.8007H23.1V49.5005Z" fill="#98C6F4"/>
<path d="M23.1 52.7993H19.7998V56.0996H23.1V52.7993Z" fill="#98C6F4"/>
<path d="M23.1 46.2002H19.7998V49.5004H23.1V46.2002Z" fill="#B3DDFF"/>
<path d="M125.399 46.2002H122.099V49.5004H125.399V46.2002Z" fill="#B3DDFF"/>
<path d="M125.399 59.3994H122.099V62.6996H125.399V59.3994Z" fill="#98C6F4"/>
<path d="M125.399 49.5005H122.099V52.8007H125.399V49.5005Z" fill="#B3DDFF"/>
<path d="M125.399 56.0991H122.099V59.3994H125.399V56.0991Z" fill="#98C6F4"/>
<path d="M125.399 52.7993H122.099V56.0996H125.399V52.7993Z" fill="#B3DDFF"/>
<path d="M125.399 42.8999H122.099V46.2001H125.399V42.8999Z" fill="#B3DDFF"/>
<path d="M125.399 36.2993H122.099V39.5996H125.399V36.2993Z" fill="#CAEAFF"/>
<path d="M125.399 39.5996H122.099V42.8998H125.399V39.5996Z" fill="#B3DDFF"/>
<path d="M13.2006 52.7993H9.90039V56.0996H13.2006V52.7993Z" fill="#98C6F4"/>
<path d="M13.2006 39.5996H9.90039V42.8998H13.2006V39.5996Z" fill="#B3DDFF"/>
<path d="M13.2006 42.8999H9.90039V46.2001H13.2006V42.8999Z" fill="#B3DDFF"/>
<path d="M13.2006 46.2002H9.90039V49.5004H13.2006V46.2002Z" fill="#B3DDFF"/>
<path d="M13.2006 36.2993H9.90039V39.5996H13.2006V36.2993Z" fill="#CAEAFF"/>
<path d="M13.2006 49.5005H9.90039V52.8007H13.2006V49.5005Z" fill="#98C6F4"/>
<path d="M9.90033 39.5996H6.6001V42.8998H9.90033V39.5996Z" fill="#B3DDFF"/>
<path d="M9.90033 42.8999H6.6001V46.2001H9.90033V42.8999Z" fill="#B3DDFF"/>
<path d="M9.90033 46.2002H6.6001V49.5004H9.90033V46.2002Z" fill="#98C6F4"/>
<path d="M9.90033 49.5005H6.6001V52.8007H9.90033V49.5005Z" fill="#98C6F4"/>
<path d="M16.4995 46.2002H13.1992V49.5004H16.4995V46.2002Z" fill="#B3DDFF"/>
<path d="M16.4995 52.7993H13.1992V56.0996H16.4995V52.7993Z" fill="#98C6F4"/>
<path d="M16.4995 49.5005H13.1992V52.8007H16.4995V49.5005Z" fill="#98C6F4"/>
<path d="M16.4995 42.8999H13.1992V46.2001H16.4995V42.8999Z" fill="#98C6F4"/>
<path d="M16.4995 39.5996H13.1992V42.8998H16.4995V39.5996Z" fill="#B3DDFF"/>
<path d="M16.4995 36.2993H13.1992V39.5996H16.4995V36.2993Z" fill="#CAEAFF"/>
<path d="M122.099 32.999H118.799V36.2993H122.099V32.999Z" fill="#CAEAFF"/>
<path d="M122.099 36.2993H118.799V39.5996H122.099V36.2993Z" fill="#CAEAFF"/>
<path d="M122.099 46.2002H118.799V49.5004H122.099V46.2002Z" fill="#B3DDFF"/>
<path d="M122.099 39.5996H118.799V42.8998H122.099V39.5996Z" fill="#B3DDFF"/>
<path d="M122.099 56.0991H118.799V59.3994H122.099V56.0991Z" fill="#B3DDFF"/>
<path d="M122.099 59.3994H118.799V62.6996H122.099V59.3994Z" fill="#98C6F4"/>
<path d="M122.099 62.6997H118.799V65.9999H122.099V62.6997Z" fill="#98C6F4"/>
<path d="M122.099 42.8999H118.799V46.2001H122.099V42.8999Z" fill="#B3DDFF"/>
<path d="M122.099 49.5005H118.799V52.8007H122.099V49.5005Z" fill="#B3DDFF"/>
<path d="M122.099 52.7993H118.799V56.0996H122.099V52.7993Z" fill="#B3DDFF"/>
<path d="M115.5 52.7993H112.2V56.0996H115.5V52.7993Z" fill="#98C6F4"/>
<path d="M92.4003 3.30029H89.1001V6.60053H92.4003V3.30029Z" fill="#CAEAFF"/>
<path d="M92.4003 19.7998H89.1001V23.1H92.4003V19.7998Z" fill="#B3DDFF"/>
<path d="M92.4003 23.1001H89.1001V26.4003H92.4003V23.1001Z" fill="#B3DDFF"/>
<path d="M92.4003 29.7007H89.1001V33.0009H92.4003V29.7007Z" fill="#98C6F4"/>
<path d="M92.4003 32.999H89.1001V36.2993H92.4003V32.999Z" fill="#98C6F4"/>
<path d="M92.4003 9.90088H89.1001V13.2011H92.4003V9.90088Z" fill="#CAEAFF"/>
<path d="M92.4003 36.2993H89.1001V39.5996H92.4003V36.2993Z" fill="#B3DDFF"/>
<path d="M92.4003 6.60059H89.1001V9.90082H92.4003V6.60059Z" fill="#B3DDFF"/>
<path d="M92.4003 13.1992H89.1001V16.4995H92.4003V13.1992Z" fill="#B3DDFF"/>
<path d="M92.4003 16.4995H89.1001V19.7997H92.4003V16.4995Z" fill="#B3DDFF"/>
<path d="M92.4003 26.4004H89.1001V29.7006H92.4003V26.4004Z" fill="#B3DDFF"/>
<path d="M79.1992 42.8999H75.8989V46.2001H79.1992V42.8999Z" fill="#B3DDFF"/>
<path d="M65.9999 42.8999H62.6997V46.2001H65.9999V42.8999Z" fill="#B3DDFF"/>
<path d="M75.8989 42.8999H72.5986V46.2001H75.8989V42.8999Z" fill="#B3DDFF"/>
<path d="M69.3002 42.8999H66V46.2001H69.3002V42.8999Z" fill="#B3DDFF"/>
<path d="M89.1 42.8999H85.7998V46.2001H89.1V42.8999Z" fill="#B3DDFF"/>
<path d="M92.4003 39.5996H89.1001V42.8998H92.4003V39.5996Z" fill="#B3DDFF"/>
<path d="M82.4995 42.8999H79.1992V46.2001H82.4995V42.8999Z" fill="#B3DDFF"/>
<path d="M92.4003 42.8999H89.1001V46.2001H92.4003V42.8999Z" fill="#B3DDFF"/>
<path d="M85.7997 42.8999H82.4995V46.2001H85.7997V42.8999Z" fill="#B3DDFF"/>
<path d="M72.6005 42.8999H69.3003V46.2001H72.6005V42.8999Z" fill="#B3DDFF"/>
<path d="M62.6996 42.8999H59.3994V46.2001H62.6996V42.8999Z" fill="#98C6F4"/>
<path d="M39.5996 49.5005H36.2993V52.8007H39.5996V49.5005Z" fill="#B3DDFF"/>
<path d="M89.1 3.30029H85.7998V6.60053H89.1V3.30029Z" fill="#B3DDFF"/>
<path d="M89.1 13.1992H85.7998V16.4995H89.1V13.1992Z" fill="#B3DDFF"/>
<path d="M89.1 16.4995H85.7998V19.7997H89.1V16.4995Z" fill="#B3DDFF"/>
<path d="M89.1 19.7998H85.7998V23.1H89.1V19.7998Z" fill="#B3DDFF"/>
<path d="M89.1 9.90088H85.7998V13.2011H89.1V9.90088Z" fill="#B3DDFF"/>
<path d="M89.1 6.60059H85.7998V9.90082H89.1V6.60059Z" fill="#B3DDFF"/>
<path d="M46.2001 36.2993H42.8999V39.5996H46.2001V36.2993Z" fill="#CAEAFF"/>
<path d="M46.2001 39.5996H42.8999V42.8998H46.2001V39.5996Z" fill="#B3DDFF"/>
<path d="M46.2001 32.999H42.8999V36.2993H46.2001V32.999Z" fill="#CAEAFF"/>
<path d="M46.2001 29.7007H42.8999V33.0009H46.2001V29.7007Z" fill="#CAEAFF"/>
<path d="M46.2001 42.8999H42.8999V46.2001H46.2001V42.8999Z" fill="#B3DDFF"/>
<path d="M89.1 23.1001H85.7998V26.4003H89.1V23.1001Z" fill="#B3DDFF"/>
<path d="M52.8002 42.8999H49.5V46.2001H52.8002V42.8999Z" fill="#B3DDFF"/>
<path d="M49.4999 42.8999H46.1997V46.2001H49.4999V42.8999Z" fill="#B3DDFF"/>
<path d="M56.0991 42.8999H52.7988V46.2001H56.0991V42.8999Z" fill="#B3DDFF"/>
<path d="M46.2001 26.4004H42.8999V29.7006H46.2001V26.4004Z" fill="#CAEAFF"/>
<path d="M46.2001 23.1001H42.8999V26.4003H46.2001V23.1001Z" fill="#CAEAFF"/>
<path d="M59.3994 42.8999H56.0991V46.2001H59.3994V42.8999Z" fill="#98C6F4"/>
<path d="M95.7001 6.60059H92.3999V9.90082H95.7001V6.60059Z" fill="#CAEAFF"/>
<path d="M95.7001 9.90088H92.3999V13.2011H95.7001V9.90088Z" fill="#CAEAFF"/>
<path d="M39.5996 32.999H36.2993V36.2993H39.5996V32.999Z" fill="#CAEAFF"/>
<path d="M39.5996 46.2002H36.2993V49.5004H39.5996V46.2002Z" fill="#B3DDFF"/>
<path d="M39.5996 42.8999H36.2993V46.2001H39.5996V42.8999Z" fill="#B3DDFF"/>
<path d="M39.5996 39.5996H36.2993V42.8998H39.5996V39.5996Z" fill="#CAEAFF"/>
<path d="M39.5996 36.2993H36.2993V39.5996H39.5996V36.2993Z" fill="#CAEAFF"/>
<path d="M95.7001 26.4004H92.3999V29.7006H95.7001V26.4004Z" fill="#98C6F4"/>
<path d="M42.8998 46.2002H39.5996V49.5004H42.8998V46.2002Z" fill="#B3DDFF"/>
<path d="M46.2001 46.2002H42.8999V49.5004H46.2001V46.2002Z" fill="#B3DDFF"/>
<path d="M42.8998 42.8999H39.5996V46.2001H42.8998V42.8999Z" fill="#B3DDFF"/>
<path d="M42.8998 39.5996H39.5996V42.8998H42.8998V39.5996Z" fill="#CAEAFF"/>
<path d="M52.8002 46.2002H49.5V49.5004H52.8002V46.2002Z" fill="#B3DDFF"/>
<path d="M59.3994 46.2002H56.0991V49.5004H59.3994V46.2002Z" fill="#98C6F4"/>
<path d="M49.4999 46.2002H46.1997V49.5004H49.4999V46.2002Z" fill="#B3DDFF"/>
<path d="M56.0991 46.2002H52.7988V49.5004H56.0991V46.2002Z" fill="#98C6F4"/>
<path d="M42.8998 36.2993H39.5996V39.5996H42.8998V36.2993Z" fill="#CAEAFF"/>
<path d="M42.8998 32.999H39.5996V36.2993H42.8998V32.999Z" fill="#CAEAFF"/>
<path d="M42.8998 26.4004H39.5996V29.7006H42.8998V26.4004Z" fill="#CAEAFF"/>
<path d="M62.6996 46.2002H59.3994V49.5004H62.6996V46.2002Z" fill="#98C6F4"/>
<path d="M42.8998 29.7007H39.5996V33.0009H42.8998V29.7007Z" fill="#CAEAFF"/>
<path d="M95.7001 36.2993H92.3999V39.5996H95.7001V36.2993Z" fill="#B3DDFF"/>
<path d="M95.7001 32.999H92.3999V36.2993H95.7001V32.999Z" fill="#B3DDFF"/>
<path d="M95.7001 39.5996H92.3999V42.8998H95.7001V39.5996Z" fill="#B3DDFF"/>
<path d="M95.7001 29.7007H92.3999V33.0009H95.7001V29.7007Z" fill="#98C6F4"/>
<path d="M65.9999 46.2002H62.6997V49.5004H65.9999V46.2002Z" fill="#98C6F4"/>
<path d="M95.7001 16.4995H92.3999V19.7997H95.7001V16.4995Z" fill="#CAEAFF"/>
<path d="M95.7001 13.1992H92.3999V16.4995H95.7001V13.1992Z" fill="#CAEAFF"/>
<path d="M95.7001 19.7998H92.3999V23.1H95.7001V19.7998Z" fill="#CAEAFF"/>
<path d="M95.7001 23.1001H92.3999V26.4003H95.7001V23.1001Z" fill="#98C6F4"/>
<path d="M95.7001 42.8999H92.3999V46.2001H95.7001V42.8999Z" fill="#B3DDFF"/>
<path d="M75.8989 46.2002H72.5986V49.5004H75.8989V46.2002Z" fill="#B3DDFF"/>
<path d="M72.6005 46.2002H69.3003V49.5004H72.6005V46.2002Z" fill="#B3DDFF"/>
<path d="M79.1992 46.2002H75.8989V49.5004H79.1992V46.2002Z" fill="#B3DDFF"/>
<path d="M69.3002 46.2002H66V49.5004H69.3002V46.2002Z" fill="#98C6F4"/>
<path d="M89.1 46.2002H85.7998V49.5004H89.1V46.2002Z" fill="#B3DDFF"/>
<path d="M95.7001 46.2002H92.3999V49.5004H95.7001V46.2002Z" fill="#B3DDFF"/>
<path d="M92.4003 46.2002H89.1001V49.5004H92.4003V46.2002Z" fill="#B3DDFF"/>
<path d="M85.7997 46.2002H82.4995V49.5004H85.7997V46.2002Z" fill="#B3DDFF"/>
<path d="M82.4995 46.2002H79.1992V49.5004H82.4995V46.2002Z" fill="#B3DDFF"/>
<path d="M79.1992 6.60059H75.8989V9.90082H79.1992V6.60059Z" fill="#B3DDFF"/>
<path d="M65.9999 6.60059H62.6997V9.90082H65.9999V6.60059Z" fill="#CAEAFF"/>
<path d="M75.8989 6.60059H72.5986V9.90082H75.8989V6.60059Z" fill="#B3DDFF"/>
<path d="M72.6005 6.60059H69.3003V9.90082H72.6005V6.60059Z" fill="#B3DDFF"/>
<path d="M69.3002 6.60059H66V9.90082H69.3002V6.60059Z" fill="#B3DDFF"/>
<path d="M56.0991 13.1992H52.7988V16.4995H56.0991V13.1992Z" fill="#CAEAFF"/>
<path d="M56.0991 16.4995H52.7988V19.7997H56.0991V16.4995Z" fill="#CAEAFF"/>
<path d="M75.8989 29.7007H72.5986V33.0009H75.8989V29.7007Z" fill="#B3DDFF"/>
<path d="M82.4995 9.90088H79.1992V13.2011H82.4995V9.90088Z" fill="#B3DDFF"/>
<path d="M72.6005 29.7007H69.3003V33.0009H72.6005V29.7007Z" fill="#B3DDFF"/>
<path d="M79.1992 26.4004H75.8989V29.7006H79.1992V26.4004Z" fill="#B3DDFF"/>
<path d="M79.1992 16.4995H75.8989V19.7997H79.1992V16.4995Z" fill="#B3DDFF"/>
<path d="M79.1992 23.1001H75.8989V26.4003H79.1992V23.1001Z" fill="#B3DDFF"/>
<path d="M79.1992 9.90088H75.8989V13.2011H79.1992V9.90088Z" fill="#B3DDFF"/>
<path d="M79.1992 13.1992H75.8989V16.4995H79.1992V13.1992Z" fill="#B3DDFF"/>
<path d="M79.1992 19.7998H75.8989V23.1H79.1992V19.7998Z" fill="#B3DDFF"/>
<path d="M56.0991 26.4004H52.7988V29.7006H56.0991V26.4004Z" fill="#B3DDFF"/>
<path d="M82.4995 29.7007H79.1992V33.0009H82.4995V29.7007Z" fill="#B3DDFF"/>
<path d="M82.4995 32.999H79.1992V36.2993H82.4995V32.999Z" fill="#B3DDFF"/>
<path d="M79.1992 32.999H75.8989V36.2993H79.1992V32.999Z" fill="#B3DDFF"/>
<path d="M82.4995 26.4004H79.1992V29.7006H82.4995V26.4004Z" fill="#B3DDFF"/>
<path d="M82.4995 19.7998H79.1992V23.1H82.4995V19.7998Z" fill="#B3DDFF"/>
<path d="M82.4995 23.1001H79.1992V26.4003H82.4995V23.1001Z" fill="#B3DDFF"/>
<path d="M82.4995 13.1992H79.1992V16.4995H82.4995V13.1992Z" fill="#B3DDFF"/>
<path d="M82.4995 16.4995H79.1992V19.7997H82.4995V16.4995Z" fill="#B3DDFF"/>
<path d="M89.1 26.4004H85.7998V29.7006H89.1V26.4004Z" fill="#B3DDFF"/>
<path d="M56.0991 29.7007H52.7988V33.0009H56.0991V29.7007Z" fill="#B3DDFF"/>
<path d="M56.0991 19.7998H52.7988V23.1H56.0991V19.7998Z" fill="#CAEAFF"/>
<path d="M56.0991 32.999H52.7988V36.2993H56.0991V32.999Z" fill="#B3DDFF"/>
<path d="M69.3002 29.7007H66V33.0009H69.3002V29.7007Z" fill="#B3DDFF"/>
<path d="M72.6005 32.999H69.3003V36.2993H72.6005V32.999Z" fill="#B3DDFF"/>
<path d="M56.0991 23.1001H52.7988V26.4003H56.0991V23.1001Z" fill="#B3DDFF"/>
<path d="M65.9999 32.999H62.6997V36.2993H65.9999V32.999Z" fill="#B3DDFF"/>
<path d="M59.3994 32.999H56.0991V36.2993H59.3994V32.999Z" fill="#B3DDFF"/>
<path d="M69.3002 32.999H66V36.2993H69.3002V32.999Z" fill="#B3DDFF"/>
<path d="M62.6996 32.999H59.3994V36.2993H62.6996V32.999Z" fill="#B3DDFF"/>
<path d="M79.1992 29.7007H75.8989V33.0009H79.1992V29.7007Z" fill="#B3DDFF"/>
<path d="M62.6996 13.1992H59.3994V16.4995H62.6996V13.1992Z" fill="#B3DDFF"/>
<path d="M65.9999 13.1992H62.6997V16.4995H65.9999V13.1992Z" fill="#B3DDFF"/>
<path d="M62.6996 16.4995H59.3994V19.7997H62.6996V16.4995Z" fill="#B3DDFF"/>
<path d="M69.3002 13.1992H66V16.4995H69.3002V13.1992Z" fill="#B3DDFF"/>
<path d="M65.9999 26.4004H62.6997V29.7006H65.9999V26.4004Z" fill="#B3DDFF"/>
<path d="M62.6996 26.4004H59.3994V29.7006H62.6996V26.4004Z" fill="#B3DDFF"/>
<path d="M72.6005 13.1992H69.3003V16.4995H72.6005V13.1992Z" fill="#B3DDFF"/>
<path d="M69.3002 26.4004H66V29.7006H69.3002V26.4004Z" fill="#B3DDFF"/>
<path d="M62.6996 23.1001H59.3994V26.4003H62.6996V23.1001Z" fill="#B3DDFF"/>
<path d="M62.6996 19.7998H59.3994V23.1H62.6996V19.7998Z" fill="#B3DDFF"/>
<path d="M65.9999 16.4995H62.6997V19.7997H65.9999V16.4995Z" fill="#B3DDFF"/>
<path d="M72.6005 16.4995H69.3003V19.7997H72.6005V16.4995Z" fill="#B3DDFF"/>
<path d="M65.9999 19.7998H62.6997V23.1H65.9999V19.7998Z" fill="#B3DDFF"/>
<path d="M69.3002 19.7998H66V23.1H69.3002V19.7998Z" fill="#B3DDFF"/>
<path d="M69.3002 16.4995H66V19.7997H69.3002V16.4995Z" fill="#CAEAFF"/>
<path d="M72.6005 23.1001H69.3003V26.4003H72.6005V23.1001Z" fill="#B3DDFF"/>
<path d="M65.9999 23.1001H62.6997V26.4003H65.9999V23.1001Z" fill="#B3DDFF"/>
<path d="M72.6005 19.7998H69.3003V23.1H72.6005V19.7998Z" fill="#B3DDFF"/>
<path d="M69.3002 23.1001H66V26.4003H69.3002V23.1001Z" fill="#B3DDFF"/>
<path d="M59.3994 29.7007H56.0991V33.0009H59.3994V29.7007Z" fill="#B3DDFF"/>
<path d="M59.3994 13.1992H56.0991V16.4995H59.3994V13.1992Z" fill="#B3DDFF"/>
<path d="M59.3994 16.4995H56.0991V19.7997H59.3994V16.4995Z" fill="#B3DDFF"/>
<path d="M59.3994 19.7998H56.0991V23.1H59.3994V19.7998Z" fill="#B3DDFF"/>
<path d="M59.3994 23.1001H56.0991V26.4003H59.3994V23.1001Z" fill="#B3DDFF"/>
<path d="M65.9999 29.7007H62.6997V33.0009H65.9999V29.7007Z" fill="#B3DDFF"/>
<path d="M62.6996 29.7007H59.3994V33.0009H62.6996V29.7007Z" fill="#B3DDFF"/>
<path d="M59.3994 26.4004H56.0991V29.7006H59.3994V26.4004Z" fill="#B3DDFF"/>
<path d="M75.8989 19.7998H72.5986V23.1H75.8989V19.7998Z" fill="#B3DDFF"/>
<path d="M72.6005 26.4004H69.3003V29.7006H72.6005V26.4004Z" fill="#B3DDFF"/>
<path d="M75.8989 23.1001H72.5986V26.4003H75.8989V23.1001Z" fill="#B3DDFF"/>
<path d="M75.8989 16.4995H72.5986V19.7997H75.8989V16.4995Z" fill="#B3DDFF"/>
<path d="M75.8989 26.4004H72.5986V29.7006H75.8989V26.4004Z" fill="#B3DDFF"/>
<path d="M69.3002 9.90088H66V13.2011H69.3002V9.90088Z" fill="#B3DDFF"/>
<path d="M65.9999 9.90088H62.6997V13.2011H65.9999V9.90088Z" fill="#B3DDFF"/>
<path d="M72.6005 9.90088H69.3003V13.2011H72.6005V9.90088Z" fill="#B3DDFF"/>
<path d="M75.8989 9.90088H72.5986V13.2011H75.8989V9.90088Z" fill="#B3DDFF"/>
<path d="M75.8989 13.1992H72.5986V16.4995H75.8989V13.1992Z" fill="#B3DDFF"/>
<path d="M75.8989 32.999H72.5986V36.2993H75.8989V32.999Z" fill="#B3DDFF"/>
<path d="M49.4999 23.1001H46.1997V26.4003H49.4999V23.1001Z" fill="#CAEAFF"/>
<path d="M75.8989 0H72.5986V3.30023H75.8989V0Z" fill="#CAEAFF"/>
<path d="M79.1992 0H75.8989V3.30023H79.1992V0Z" fill="#CAEAFF"/>
<path d="M82.4995 0H79.1992V3.30023H82.4995V0Z" fill="#CAEAFF"/>
<path d="M85.7997 0H82.4995V3.30023H85.7997V0Z" fill="#CAEAFF"/>
<path d="M49.4999 26.4004H46.1997V29.7006H49.4999V26.4004Z" fill="#CAEAFF"/>
<path d="M72.6005 0H69.3003V3.30023H72.6005V0Z" fill="#B3DDFF"/>
<path d="M79.1992 39.5996H75.8989V42.8998H79.1992V39.5996Z" fill="#B3DDFF"/>
<path d="M85.7997 3.30029H82.4995V6.60053H85.7997V3.30029Z" fill="#B3DDFF"/>
<path d="M85.7997 39.5996H82.4995V42.8998H85.7997V39.5996Z" fill="#B3DDFF"/>
<path d="M49.4999 29.7007H46.1997V33.0009H49.4999V29.7007Z" fill="#CAEAFF"/>
<path d="M75.8989 39.5996H72.5986V42.8998H75.8989V39.5996Z" fill="#B3DDFF"/>
<path d="M89.1 32.999H85.7998V36.2993H89.1V32.999Z" fill="#B3DDFF"/>
<path d="M72.6005 39.5996H69.3003V42.8998H72.6005V39.5996Z" fill="#B3DDFF"/>
<path d="M89.1 29.7007H85.7998V33.0009H89.1V29.7007Z" fill="#98C6F4"/>
<path d="M89.1 36.2993H85.7998V39.5996H89.1V36.2993Z" fill="#B3DDFF"/>
<path d="M89.1 39.5996H85.7998V42.8998H89.1V39.5996Z" fill="#B3DDFF"/>
<path d="M82.4995 39.5996H79.1992V42.8998H82.4995V39.5996Z" fill="#B3DDFF"/>
<path d="M49.4999 36.2993H46.1997V39.5996H49.4999V36.2993Z" fill="#B3DDFF"/>
<path d="M49.4999 39.5996H46.1997V42.8998H49.4999V39.5996Z" fill="#B3DDFF"/>
<path d="M69.3002 39.5996H66V42.8998H69.3002V39.5996Z" fill="#B3DDFF"/>
<path d="M52.8002 39.5996H49.5V42.8998H52.8002V39.5996Z" fill="#B3DDFF"/>
<path d="M49.4999 32.999H46.1997V36.2993H49.4999V32.999Z" fill="#CAEAFF"/>
<path d="M65.9999 39.5996H62.6997V42.8998H65.9999V39.5996Z" fill="#B3DDFF"/>
<path d="M62.6996 39.5996H59.3994V42.8998H62.6996V39.5996Z" fill="#98C6F4"/>
<path d="M59.3994 39.5996H56.0991V42.8998H59.3994V39.5996Z" fill="#98C6F4"/>
<path d="M56.0991 39.5996H52.7988V42.8998H56.0991V39.5996Z" fill="#B3DDFF"/>
<path d="M82.4995 6.60059H79.1992V9.90082H82.4995V6.60059Z" fill="#B3DDFF"/>
<path d="M52.8002 16.4995H49.5V19.7997H52.8002V16.4995Z" fill="#CAEAFF"/>
<path d="M85.7997 6.60059H82.4995V9.90082H85.7997V6.60059Z" fill="#B3DDFF"/>
<path d="M52.8002 26.4004H49.5V29.7006H52.8002V26.4004Z" fill="#CAEAFF"/>
<path d="M52.8002 23.1001H49.5V26.4003H52.8002V23.1001Z" fill="#CAEAFF"/>
<path d="M52.8002 19.7998H49.5V23.1H52.8002V19.7998Z" fill="#CAEAFF"/>
<path d="M82.4995 3.30029H79.1992V6.60053H82.4995V3.30029Z" fill="#B3DDFF"/>
<path d="M72.6005 3.30029H69.3003V6.60053H72.6005V3.30029Z" fill="#B3DDFF"/>
<path d="M79.1992 3.30029H75.8989V6.60053H79.1992V3.30029Z" fill="#B3DDFF"/>
<path d="M52.8002 32.999H49.5V36.2993H52.8002V32.999Z" fill="#B3DDFF"/>
<path d="M75.8989 3.30029H72.5986V6.60053H75.8989V3.30029Z" fill="#CAEAFF"/>
<path d="M69.3002 3.30029H66V6.60053H69.3002V3.30029Z" fill="#B3DDFF"/>
<path d="M52.8002 29.7007H49.5V33.0009H52.8002V29.7007Z" fill="#CAEAFF"/>
<path d="M85.7997 23.1001H82.4995V26.4003H85.7997V23.1001Z" fill="#B3DDFF"/>
<path d="M85.7997 29.7007H82.4995V33.0009H85.7997V29.7007Z" fill="#B3DDFF"/>
<path d="M52.8002 36.2993H49.5V39.5996H52.8002V36.2993Z" fill="#B3DDFF"/>
<path d="M85.7997 32.999H82.4995V36.2993H85.7997V32.999Z" fill="#98C6F4"/>
<path d="M85.7997 19.7998H82.4995V23.1H85.7997V19.7998Z" fill="#B3DDFF"/>
<path d="M85.7997 9.90088H82.4995V13.2011H85.7997V9.90088Z" fill="#B3DDFF"/>
<path d="M85.7997 36.2993H82.4995V39.5996H85.7997V36.2993Z" fill="#B3DDFF"/>
<path d="M85.7997 13.1992H82.4995V16.4995H85.7997V13.1992Z" fill="#B3DDFF"/>
<path d="M85.7997 16.4995H82.4995V19.7997H85.7997V16.4995Z" fill="#B3DDFF"/>
<path d="M85.7997 26.4004H82.4995V29.7006H85.7997V26.4004Z" fill="#B3DDFF"/>
<path d="M59.3994 36.2993H56.0991V39.5996H59.3994V36.2993Z" fill="#98C6F4"/>
<path d="M62.6996 36.2993H59.3994V39.5996H62.6996V36.2993Z" fill="#98C6F4"/>
<path d="M56.0991 36.2993H52.7988V39.5996H56.0991V36.2993Z" fill="#B3DDFF"/>
<path d="M65.9999 36.2993H62.6997V39.5996H65.9999V36.2993Z" fill="#B3DDFF"/>
<path d="M72.6005 36.2993H69.3003V39.5996H72.6005V36.2993Z" fill="#B3DDFF"/>
<path d="M79.1992 36.2993H75.8989V39.5996H79.1992V36.2993Z" fill="#B3DDFF"/>
<path d="M69.3002 36.2993H66V39.5996H69.3002V36.2993Z" fill="#B3DDFF"/>
<path d="M75.8989 36.2993H72.5986V39.5996H75.8989V36.2993Z" fill="#B3DDFF"/>
<path d="M82.4995 36.2993H79.1992V39.5996H82.4995V36.2993Z" fill="#B3DDFF"/>
<path d="M29.7001 32.999H26.3999V36.2993H29.7001V32.999Z" fill="#CAEAFF"/>
<path d="M29.7001 29.7007H26.3999V33.0009H29.7001V29.7007Z" fill="#CAEAFF"/>
<path d="M75.8989 56.0991H72.5986V59.3994H75.8989V56.0991Z" fill="#98C6F4"/>
<path d="M92.4003 56.0991H89.1001V59.3994H92.4003V56.0991Z" fill="#98C6F4"/>
<path d="M89.1 56.0991H85.7998V59.3994H89.1V56.0991Z" fill="#98C6F4"/>
<path d="M105.6 52.7993H102.299V56.0996H105.6V52.7993Z" fill="#B3DDFF"/>
<path d="M79.1992 56.0991H75.8989V59.3994H79.1992V56.0991Z" fill="#98C6F4"/>
<path d="M85.7997 56.0991H82.4995V59.3994H85.7997V56.0991Z" fill="#98C6F4"/>
<path d="M105.6 56.0991H102.299V59.3994H105.6V56.0991Z" fill="#98C6F4"/>
<path d="M102.299 56.0991H98.999V59.3994H102.299V56.0991Z" fill="#98C6F4"/>
<path d="M98.999 56.0991H95.6987V59.3994H98.999V56.0991Z" fill="#98C6F4"/>
<path d="M95.7001 56.0991H92.3999V59.3994H95.7001V56.0991Z" fill="#98C6F4"/>
<path d="M82.4995 56.0991H79.1992V59.3994H82.4995V56.0991Z" fill="#98C6F4"/>
<path d="M52.8002 56.0991H49.5V59.3994H52.8002V56.0991Z" fill="#98C6F4"/>
<path d="M49.4999 56.0991H46.1997V59.3994H49.4999V56.0991Z" fill="#98C6F4"/>
<path d="M46.2001 56.0991H42.8999V59.3994H46.2001V56.0991Z" fill="#98C6F4"/>
<path d="M72.6005 56.0991H69.3003V59.3994H72.6005V56.0991Z" fill="#98C6F4"/>
<path d="M105.6 32.999H102.299V36.2993H105.6V32.999Z" fill="#B3DDFF"/>
<path d="M105.6 36.2993H102.299V39.5996H105.6V36.2993Z" fill="#B3DDFF"/>
<path d="M105.6 39.5996H102.299V42.8998H105.6V39.5996Z" fill="#B3DDFF"/>
<path d="M105.6 42.8999H102.299V46.2001H105.6V42.8999Z" fill="#B3DDFF"/>
<path d="M105.6 46.2002H102.299V49.5004H105.6V46.2002Z" fill="#B3DDFF"/>
<path d="M105.6 49.5005H102.299V52.8007H105.6V49.5005Z" fill="#98C6F4"/>
<path d="M105.6 26.4004H102.299V29.7006H105.6V26.4004Z" fill="#CAEAFF"/>
<path d="M105.6 29.7007H102.299V33.0009H105.6V29.7007Z" fill="#CAEAFF"/>
<path d="M29.7001 36.2993H26.3999V39.5996H29.7001V36.2993Z" fill="#CAEAFF"/>
<path d="M108.9 26.4004H105.6V29.7006H108.9V26.4004Z" fill="#CAEAFF"/>
<path d="M108.9 29.7007H105.6V33.0009H108.9V29.7007Z" fill="#CAEAFF"/>
<path d="M42.8998 56.0991H39.5996V59.3994H42.8998V56.0991Z" fill="#98C6F4"/>
<path d="M29.7001 42.8999H26.3999V46.2001H29.7001V42.8999Z" fill="#B3DDFF"/>
<path d="M29.7001 46.2002H26.3999V49.5004H29.7001V46.2002Z" fill="#B3DDFF"/>
<path d="M29.7001 39.5996H26.3999V42.8998H29.7001V39.5996Z" fill="#B3DDFF"/>
<path d="M29.7001 49.5005H26.3999V52.8007H29.7001V49.5005Z" fill="#98C6F4"/>
<path d="M29.7001 52.7993H26.3999V56.0996H29.7001V52.7993Z" fill="#98C6F4"/>
<path d="M108.9 32.999H105.6V36.2993H108.9V32.999Z" fill="#B3DDFF"/>
<path d="M108.9 49.5005H105.6V52.8007H108.9V49.5005Z" fill="#B3DDFF"/>
<path d="M108.9 56.0991H105.6V59.3994H108.9V56.0991Z" fill="#B3DDFF"/>
<path d="M108.9 52.7993H105.6V56.0996H108.9V52.7993Z" fill="#B3DDFF"/>
<path d="M108.9 59.3994H105.6V62.6996H108.9V59.3994Z" fill="#98C6F4"/>
<path d="M108.9 46.2002H105.6V49.5004H108.9V46.2002Z" fill="#B3DDFF"/>
<path d="M108.9 39.5996H105.6V42.8998H108.9V39.5996Z" fill="#B3DDFF"/>
<path d="M108.9 36.2993H105.6V39.5996H108.9V36.2993Z" fill="#B3DDFF"/>
<path d="M108.9 42.8999H105.6V46.2001H108.9V42.8999Z" fill="#B3DDFF"/>
<path d="M105.6 59.3994H102.299V62.6996H105.6V59.3994Z" fill="#98C6F4"/>
<path d="M98.999 59.3994H95.6987V62.6996H98.999V59.3994Z" fill="#98C6F4"/>
<path d="M102.299 59.3994H98.999V62.6996H102.299V59.3994Z" fill="#98C6F4"/>
<path d="M95.7001 59.3994H92.3999V62.6996H95.7001V59.3994Z" fill="#98C6F4"/>
<path d="M92.4003 59.3994H89.1001V62.6996H92.4003V59.3994Z" fill="#98C6F4"/>
<path d="M52.8002 49.5005H49.5V52.8007H52.8002V49.5005Z" fill="#98C6F4"/>
<path d="M36.2993 46.2002H32.999V49.5004H36.2993V46.2002Z" fill="#98C6F4"/>
<path d="M36.2993 49.5005H32.999V52.8007H36.2993V49.5005Z" fill="#B3DDFF"/>
<path d="M36.2993 52.7993H32.999V56.0996H36.2993V52.7993Z" fill="#98C6F4"/>
<path d="M36.2993 42.8999H32.999V46.2001H36.2993V42.8999Z" fill="#B3DDFF"/>
<path d="M42.8998 52.7993H39.5996V56.0996H42.8998V52.7993Z" fill="#98C6F4"/>
<path d="M49.4999 52.7993H46.1997V56.0996H49.4999V52.7993Z" fill="#98C6F4"/>
<path d="M46.2001 52.7993H42.8999V56.0996H46.2001V52.7993Z" fill="#98C6F4"/>
<path d="M39.5996 52.7993H36.2993V56.0996H39.5996V52.7993Z" fill="#98C6F4"/>
<path d="M36.2993 39.5996H32.999V42.8998H36.2993V39.5996Z" fill="#B3DDFF"/>
<path d="M36.2993 32.999H32.999V36.2993H36.2993V32.999Z" fill="#CAEAFF"/>
<path d="M36.2993 36.2993H32.999V39.5996H36.2993V36.2993Z" fill="#CAEAFF"/>
<path d="M98.999 36.2993H95.6987V39.5996H98.999V36.2993Z" fill="#B3DDFF"/>
<path d="M85.7997 49.5005H82.4995V52.8007H85.7997V49.5005Z" fill="#B3DDFF"/>
<path d="M75.8989 49.5005H72.5986V52.8007H75.8989V49.5005Z" fill="#98C6F4"/>
<path d="M79.1992 49.5005H75.8989V52.8007H79.1992V49.5005Z" fill="#98C6F4"/>
<path d="M89.1 49.5005H85.7998V52.8007H89.1V49.5005Z" fill="#B3DDFF"/>
<path d="M82.4995 49.5005H79.1992V52.8007H82.4995V49.5005Z" fill="#98C6F4"/>
<path d="M98.999 46.2002H95.6987V49.5004H98.999V46.2002Z" fill="#B3DDFF"/>
<path d="M98.999 49.5005H95.6987V52.8007H98.999V49.5005Z" fill="#B3DDFF"/>
<path d="M92.4003 49.5005H89.1001V52.8007H92.4003V49.5005Z" fill="#B3DDFF"/>
<path d="M95.7001 49.5005H92.3999V52.8007H95.7001V49.5005Z" fill="#B3DDFF"/>
<path d="M62.6996 49.5005H59.3994V52.8007H62.6996V49.5005Z" fill="#98C6F4"/>
<path d="M42.8998 49.5005H39.5996V52.8007H42.8998V49.5005Z" fill="#B3DDFF"/>
<path d="M49.4999 49.5005H46.1997V52.8007H49.4999V49.5005Z" fill="#98C6F4"/>
<path d="M56.0991 49.5005H52.7988V52.8007H56.0991V49.5005Z" fill="#98C6F4"/>
<path d="M46.2001 49.5005H42.8999V52.8007H46.2001V49.5005Z" fill="#B3DDFF"/>
<path d="M72.6005 49.5005H69.3003V52.8007H72.6005V49.5005Z" fill="#98C6F4"/>
<path d="M59.3994 49.5005H56.0991V52.8007H59.3994V49.5005Z" fill="#98C6F4"/>
<path d="M65.9999 49.5005H62.6997V52.8007H65.9999V49.5005Z" fill="#98C6F4"/>
<path d="M69.3002 49.5005H66V52.8007H69.3002V49.5005Z" fill="#98C6F4"/>
<path d="M98.999 42.8999H95.6987V46.2001H98.999V42.8999Z" fill="#B3DDFF"/>
<path d="M98.999 39.5996H95.6987V42.8998H98.999V39.5996Z" fill="#B3DDFF"/>
<path d="M39.5996 56.0991H36.2993V59.3994H39.5996V56.0991Z" fill="#98C6F4"/>
<path d="M98.999 26.4004H95.6987V29.7006H98.999V26.4004Z" fill="#98C6F4"/>
<path d="M98.999 32.999H95.6987V36.2993H98.999V32.999Z" fill="#B3DDFF"/>
<path d="M98.999 9.90088H95.6987V13.2011H98.999V9.90088Z" fill="#CAEAFF"/>
<path d="M52.8002 52.7993H49.5V56.0996H52.8002V52.7993Z" fill="#98C6F4"/>
<path d="M98.999 29.7007H95.6987V33.0009H98.999V29.7007Z" fill="#B3DDFF"/>
<path d="M98.999 13.1992H95.6987V16.4995H98.999V13.1992Z" fill="#CAEAFF"/>
<path d="M98.999 23.1001H95.6987V26.4003H98.999V23.1001Z" fill="#98C6F4"/>
<path d="M98.999 16.4995H95.6987V19.7997H98.999V16.4995Z" fill="#CAEAFF"/>
<path d="M98.999 19.7998H95.6987V23.1H98.999V19.7998Z" fill="#CAEAFF"/>
<path d="M33.0004 39.5996H29.7002V42.8998H33.0004V39.5996Z" fill="#B3DDFF"/>
<path d="M33.0004 46.2002H29.7002V49.5004H33.0004V46.2002Z" fill="#B3DDFF"/>
<path d="M33.0004 42.8999H29.7002V46.2001H33.0004V42.8999Z" fill="#B3DDFF"/>
<path d="M33.0004 36.2993H29.7002V39.5996H33.0004V36.2993Z" fill="#CAEAFF"/>
<path d="M33.0004 52.7993H29.7002V56.0996H33.0004V52.7993Z" fill="#98C6F4"/>
<path d="M33.0004 32.999H29.7002V36.2993H33.0004V32.999Z" fill="#CAEAFF"/>
<path d="M56.0991 52.7993H52.7988V56.0996H56.0991V52.7993Z" fill="#98C6F4"/>
<path d="M33.0004 49.5005H29.7002V52.8007H33.0004V49.5005Z" fill="#98C6F4"/>
<path d="M98.999 52.7993H95.6987V56.0996H98.999V52.7993Z" fill="#B3DDFF"/>
<path d="M102.299 52.7993H98.999V56.0996H102.299V52.7993Z" fill="#B3DDFF"/>
<path d="M95.7001 52.7993H92.3999V56.0996H95.7001V52.7993Z" fill="#B3DDFF"/>
<path d="M92.4003 52.7993H89.1001V56.0996H92.4003V52.7993Z" fill="#B3DDFF"/>
<path d="M102.299 46.2002H98.999V49.5004H102.299V46.2002Z" fill="#B3DDFF"/>
<path d="M102.299 42.8999H98.999V46.2001H102.299V42.8999Z" fill="#B3DDFF"/>
<path d="M102.299 39.5996H98.999V42.8998H102.299V39.5996Z" fill="#B3DDFF"/>
<path d="M102.299 36.2993H98.999V39.5996H102.299V36.2993Z" fill="#B3DDFF"/>
<path d="M102.299 49.5005H98.999V52.8007H102.299V49.5005Z" fill="#B3DDFF"/>
<path d="M89.1 52.7993H85.7998V56.0996H89.1V52.7993Z" fill="#98C6F4"/>
<path d="M69.3002 52.7993H66V56.0996H69.3002V52.7993Z" fill="#98C6F4"/>
<path d="M65.9999 52.7993H62.6997V56.0996H65.9999V52.7993Z" fill="#98C6F4"/>
<path d="M59.3994 52.7993H56.0991V56.0996H59.3994V52.7993Z" fill="#98C6F4"/>
<path d="M82.4995 52.7993H79.1992V56.0996H82.4995V52.7993Z" fill="#98C6F4"/>
<path d="M85.7997 52.7993H82.4995V56.0996H85.7997V52.7993Z" fill="#98C6F4"/>
<path d="M79.1992 52.7993H75.8989V56.0996H79.1992V52.7993Z" fill="#98C6F4"/>
<path d="M72.6005 52.7993H69.3003V56.0996H72.6005V52.7993Z" fill="#98C6F4"/>
<path d="M75.8989 52.7993H72.5986V56.0996H75.8989V52.7993Z" fill="#98C6F4"/>
<path d="M102.299 26.4004H98.999V29.7006H102.299V26.4004Z" fill="#98C6F4"/>
<path d="M102.299 29.7007H98.999V33.0009H102.299V29.7007Z" fill="#B3DDFF"/>
<path d="M102.299 32.999H98.999V36.2993H102.299V32.999Z" fill="#B3DDFF"/>
<path d="M132 42.8999H128.7V46.2001H132V42.8999Z" fill="#B3DDFF"/>
<path d="M132 39.5996H128.7V42.8998H132V39.5996Z" fill="#B3DDFF"/>
<path d="M132 56.0991H128.7V59.3994H132V56.0991Z" fill="#98C6F4"/>
<path d="M132 52.7993H128.7V56.0996H132V52.7993Z" fill="#98C6F4"/>
<path d="M132 46.2002H128.7V49.5004H132V46.2002Z" fill="#B3DDFF"/>
<path d="M132 49.5005H128.7V52.8007H132V49.5005Z" fill="#B3DDFF"/>
<path d="M3.30023 42.8999H0V46.2001H3.30023V42.8999Z" fill="#B3DDFF"/>
<path d="M3.30023 46.2002H0V49.5004H3.30023V46.2002Z" fill="#98C6F4"/>
<path d="M3.30023 39.5996H0V42.8998H3.30023V39.5996Z" fill="#B3DDFF"/>
<path d="M3.30023 49.5005H0V52.8007H3.30023V49.5005Z" fill="#98C6F4"/>
<path d="M132 36.2993H128.7V39.5996H132V36.2993Z" fill="#CAEAFF"/>
<path d="M128.7 42.8999H125.399V46.2001H128.7V42.8999Z" fill="#B3DDFF"/>
<path d="M128.7 46.2002H125.399V49.5004H128.7V46.2002Z" fill="#B3DDFF"/>
<path d="M128.7 36.2993H125.399V39.5996H128.7V36.2993Z" fill="#CAEAFF"/>
<path d="M128.7 39.5996H125.399V42.8998H128.7V39.5996Z" fill="#B3DDFF"/>
<path d="M128.7 49.5005H125.399V52.8007H128.7V49.5005Z" fill="#B3DDFF"/>
<path d="M128.7 52.7993H125.399V56.0996H128.7V52.7993Z" fill="#B3DDFF"/>
<path d="M128.7 56.0991H125.399V59.3994H128.7V56.0991Z" fill="#98C6F4"/>
<path d="M6.60053 49.5005H3.30029V52.8007H6.60053V49.5005Z" fill="#98C6F4"/>
<path d="M6.60053 46.2002H3.30029V49.5004H6.60053V46.2002Z" fill="#98C6F4"/>
<path d="M6.60053 42.8999H3.30029V46.2001H6.60053V42.8999Z" fill="#B3DDFF"/>
<path d="M6.60053 39.5996H3.30029V42.8998H6.60053V39.5996Z" fill="#98C6F4"/>
<path d="M138.599 42.8999H135.298V46.2001H138.599V42.8999Z" fill="#98C6F4"/>
<path d="M138.599 46.2002H135.298V49.5004H138.599V46.2002Z" fill="#98C6F4"/>
<path d="M138.599 49.5005H135.298V52.8007H138.599V49.5005Z" fill="#98C6F4"/>
<path d="M138.599 52.7993H135.298V56.0996H138.599V52.7993Z" fill="#98C6F4"/>
<path d="M135.3 52.7993H132V56.0996H135.3V52.7993Z" fill="#98C6F4"/>
<path d="M135.3 56.0991H132V59.3994H135.3V56.0991Z" fill="#98C6F4"/>
<path d="M135.3 49.5005H132V52.8007H135.3V49.5005Z" fill="#98C6F4"/>
<path d="M135.3 42.8999H132V46.2001H135.3V42.8999Z" fill="#B3DDFF"/>
<path d="M135.3 39.5996H132V42.8998H135.3V39.5996Z" fill="#B3DDFF"/>
<path d="M135.3 46.2002H132V49.5004H135.3V46.2002Z" fill="#98C6F4"/>
</g>
<defs>
<clipPath id="clip0_24_52505">
<rect width="138.599" height="66" fill="white"/>
</clipPath>
</defs>
</svg>
