<svg width="137" height="50" viewBox="0 0 137 50" fill="none" xmlns="http://www.w3.org/2000/svg">
<g clip-path="url(#clip0_24_64638)">
<path d="M15.7396 33.9995H12.6484V37.0907H15.7396V33.9995Z" fill="#98C6F4"/>
<path d="M15.7396 37.0908H12.6484V40.182H15.7396V37.0908Z" fill="#98C6F4"/>
<path d="M12.6497 33.9995H9.55859V37.0907H12.6497V33.9995Z" fill="#98C6F4"/>
<path d="M12.6497 37.0908H9.55859V40.182H12.6497V37.0908Z" fill="#98C6F4"/>
<path d="M21.9217 37.0908H18.8306V40.182H21.9217V37.0908Z" fill="#98C6F4"/>
<path d="M21.9217 30.9087H18.8306V33.9998H21.9217V30.9087Z" fill="#B3DDFF"/>
<path d="M21.9217 33.9995H18.8306V37.0907H21.9217V33.9995Z" fill="#98C6F4"/>
<path d="M21.9217 40.1821H18.8306V43.2733H21.9217V40.1821Z" fill="#98C6F4"/>
<path d="M18.8304 37.0908H15.7393V40.182H18.8304V37.0908Z" fill="#98C6F4"/>
<path d="M18.8304 33.9995H15.7393V37.0907H18.8304V33.9995Z" fill="#98C6F4"/>
<path d="M18.8304 30.9087H15.7393V33.9998H18.8304V30.9087Z" fill="#B3DDFF"/>
<path d="M3.3763 37.0908H0.285156V40.182H3.3763V37.0908Z" fill="#98C6F4"/>
<path d="M9.55843 37.0908H6.46729V40.182H9.55843V37.0908Z" fill="#98C6F4"/>
<path d="M9.55843 33.9995H6.46729V37.0907H9.55843V33.9995Z" fill="#98C6F4"/>
<path d="M6.46761 37.0908H3.37646V40.182H6.46761V37.0908Z" fill="#98C6F4"/>
<path d="M6.46761 33.9995H3.37646V37.0907H6.46761V33.9995Z" fill="#98C6F4"/>
<path d="M55.9212 6.18213H52.8301V9.27327H55.9212V6.18213Z" fill="#CAEAFF"/>
<path d="M55.9212 15.4541H52.8301V18.5452H55.9212V15.4541Z" fill="#CAEAFF"/>
<path d="M55.9212 18.5454H52.8301V21.6366H55.9212V18.5454Z" fill="#B3DDFF"/>
<path d="M55.9212 12.3633H52.8301V15.4544H55.9212V12.3633Z" fill="#CAEAFF"/>
<path d="M55.9212 9.27344H52.8301V12.3646H55.9212V9.27344Z" fill="#CAEAFF"/>
<path d="M55.9212 21.6367H52.8301V24.7279H55.9212V21.6367Z" fill="#B3DDFF"/>
<path d="M80.6488 40.1821H77.5576V43.2733H80.6488V40.1821Z" fill="#98C6F4"/>
<path d="M55.9212 24.7275H52.8301V27.8187H55.9212V24.7275Z" fill="#B3DDFF"/>
<path d="M83.7401 40.1821H80.6489V43.2733H83.7401V40.1821Z" fill="#98C6F4"/>
<path d="M77.5579 40.1821H74.4668V43.2733H77.5579V40.1821Z" fill="#98C6F4"/>
<path d="M74.4666 40.1821H71.3755V43.2733H74.4666V40.1821Z" fill="#98C6F4"/>
<path d="M71.3753 40.1821H68.2842V43.2733H71.3753V40.1821Z" fill="#98C6F4"/>
<path d="M86.8314 40.1821H83.7402V43.2733H86.8314V40.1821Z" fill="#98C6F4"/>
<path d="M99.1942 40.1821H96.103V43.2733H99.1942V40.1821Z" fill="#98C6F4"/>
<path d="M93.012 40.1821H89.9209V43.2733H93.012V40.1821Z" fill="#98C6F4"/>
<path d="M89.9222 40.1821H86.8311V43.2733H89.9222V40.1821Z" fill="#98C6F4"/>
<path d="M96.1033 40.1821H93.0122V43.2733H96.1033V40.1821Z" fill="#98C6F4"/>
<path d="M55.9212 30.9087H52.8301V33.9998H55.9212V30.9087Z" fill="#B3DDFF"/>
<path d="M55.9212 33.9995H52.8301V37.0907H55.9212V33.9995Z" fill="#98C6F4"/>
<path d="M55.9212 37.0908H52.8301V40.182H55.9212V37.0908Z" fill="#98C6F4"/>
<path d="M68.286 40.1821H65.1948V43.2733H68.286V40.1821Z" fill="#98C6F4"/>
<path d="M55.9212 27.8188H52.8301V30.91H55.9212V27.8188Z" fill="#B3DDFF"/>
<path d="M62.1038 40.1821H59.0127V43.2733H62.1038V40.1821Z" fill="#98C6F4"/>
<path d="M55.9212 40.1821H52.8301V43.2733H55.9212V40.1821Z" fill="#98C6F4"/>
<path d="M65.1947 40.1821H62.1035V43.2733H65.1947V40.1821Z" fill="#98C6F4"/>
<path d="M59.0125 40.1821H55.9214V43.2733H59.0125V40.1821Z" fill="#98C6F4"/>
<path d="M114.649 40.1821H111.558V43.2733H114.649V40.1821Z" fill="#98C6F4"/>
<path d="M108.468 40.1821H105.376V43.2733H108.468V40.1821Z" fill="#98C6F4"/>
<path d="M102.285 40.1821H99.1943V43.2733H102.285V40.1821Z" fill="#98C6F4"/>
<path d="M111.557 40.1821H108.466V43.2733H111.557V40.1821Z" fill="#98C6F4"/>
<path d="M120.831 40.1821H117.74V43.2733H120.831V40.1821Z" fill="#98C6F4"/>
<path d="M117.74 40.1821H114.648V43.2733H117.74V40.1821Z" fill="#98C6F4"/>
<path d="M59.0125 12.3633H55.9214V15.4544H59.0125V12.3633Z" fill="#CAEAFF"/>
<path d="M117.74 33.9995H114.648V37.0907H117.74V33.9995Z" fill="#98C6F4"/>
<path d="M120.831 33.9995H117.74V37.0907H120.831V33.9995Z" fill="#98C6F4"/>
<path d="M111.557 33.9995H108.466V37.0907H111.557V33.9995Z" fill="#98C6F4"/>
<path d="M114.649 33.9995H111.558V37.0907H114.649V33.9995Z" fill="#98C6F4"/>
<path d="M130.103 33.9995H127.012V37.0907H130.103V33.9995Z" fill="#98C6F4"/>
<path d="M133.194 33.9995H130.103V37.0907H133.194V33.9995Z" fill="#98C6F4"/>
<path d="M127.013 33.9995H123.922V37.0907H127.013V33.9995Z" fill="#98C6F4"/>
<path d="M123.922 33.9995H120.831V37.0907H123.922V33.9995Z" fill="#98C6F4"/>
<path d="M108.468 33.9995H105.376V37.0907H108.468V33.9995Z" fill="#98C6F4"/>
<path d="M65.1947 33.9995H62.1035V37.0907H65.1947V33.9995Z" fill="#B3DDFF"/>
<path d="M62.1038 12.3633H59.0127V15.4544H62.1038V12.3633Z" fill="#CAEAFF"/>
<path d="M62.1038 9.27344H59.0127V12.3646H62.1038V9.27344Z" fill="#CAEAFF"/>
<path d="M62.1038 6.18213H59.0127V9.27327H62.1038V6.18213Z" fill="#CAEAFF"/>
<path d="M62.1038 3.09131H59.0127V6.18245H62.1038V3.09131Z" fill="#CAEAFF"/>
<path d="M105.377 33.9995H102.286V37.0907H105.377V33.9995Z" fill="#98C6F4"/>
<path d="M62.1038 15.4541H59.0127V18.5452H62.1038V15.4541Z" fill="#B3DDFF"/>
<path d="M83.7401 33.9995H80.6489V37.0907H83.7401V33.9995Z" fill="#B3DDFF"/>
<path d="M77.5579 33.9995H74.4668V37.0907H77.5579V33.9995Z" fill="#B3DDFF"/>
<path d="M89.9222 33.9995H86.8311V37.0907H89.9222V33.9995Z" fill="#B3DDFF"/>
<path d="M80.6488 33.9995H77.5576V37.0907H80.6488V33.9995Z" fill="#B3DDFF"/>
<path d="M86.8314 33.9995H83.7402V37.0907H86.8314V33.9995Z" fill="#B3DDFF"/>
<path d="M62.1038 18.5454H59.0127V21.6366H62.1038V18.5454Z" fill="#B3DDFF"/>
<path d="M99.1942 33.9995H96.103V37.0907H99.1942V33.9995Z" fill="#B3DDFF"/>
<path d="M96.1033 33.9995H93.0122V37.0907H96.1033V33.9995Z" fill="#B3DDFF"/>
<path d="M93.012 33.9995H89.9209V37.0907H93.012V33.9995Z" fill="#B3DDFF"/>
<path d="M102.285 33.9995H99.1943V37.0907H102.285V33.9995Z" fill="#98C6F4"/>
<path d="M62.1038 27.8188H59.0127V30.91H62.1038V27.8188Z" fill="#B3DDFF"/>
<path d="M62.1038 30.9087H59.0127V33.9998H62.1038V30.9087Z" fill="#B3DDFF"/>
<path d="M62.1038 24.7275H59.0127V27.8187H62.1038V24.7275Z" fill="#B3DDFF"/>
<path d="M62.1038 21.6367H59.0127V24.7279H62.1038V21.6367Z" fill="#B3DDFF"/>
<path d="M68.286 33.9995H65.1948V37.0907H68.286V33.9995Z" fill="#B3DDFF"/>
<path d="M62.1038 33.9995H59.0127V37.0907H62.1038V33.9995Z" fill="#B3DDFF"/>
<path d="M71.3753 33.9995H68.2842V37.0907H71.3753V33.9995Z" fill="#B3DDFF"/>
<path d="M74.4666 33.9995H71.3755V37.0907H74.4666V33.9995Z" fill="#B3DDFF"/>
<path d="M59.0125 15.4541H55.9214V18.5452H59.0125V15.4541Z" fill="#B3DDFF"/>
<path d="M83.7401 37.0908H80.6489V40.182H83.7401V37.0908Z" fill="#B3DDFF"/>
<path d="M68.286 37.0908H65.1948V40.182H68.286V37.0908Z" fill="#98C6F4"/>
<path d="M65.1947 37.0908H62.1035V40.182H65.1947V37.0908Z" fill="#98C6F4"/>
<path d="M59.0125 33.9995H55.9214V37.0907H59.0125V33.9995Z" fill="#98C6F4"/>
<path d="M71.3753 37.0908H68.2842V40.182H71.3753V37.0908Z" fill="#B3DDFF"/>
<path d="M80.6488 37.0908H77.5576V40.182H80.6488V37.0908Z" fill="#B3DDFF"/>
<path d="M77.5579 37.0908H74.4668V40.182H77.5579V37.0908Z" fill="#B3DDFF"/>
<path d="M59.0125 30.9087H55.9214V33.9998H59.0125V30.9087Z" fill="#B3DDFF"/>
<path d="M74.4666 37.0908H71.3755V40.182H74.4666V37.0908Z" fill="#B3DDFF"/>
<path d="M62.1038 37.0908H59.0127V40.182H62.1038V37.0908Z" fill="#98C6F4"/>
<path d="M59.0125 6.18213H55.9214V9.27327H59.0125V6.18213Z" fill="#CAEAFF"/>
<path d="M59.0125 9.27344H55.9214V12.3646H59.0125V9.27344Z" fill="#CAEAFF"/>
<path d="M59.0125 3.09131H55.9214V6.18245H59.0125V3.09131Z" fill="#CAEAFF"/>
<path d="M59.0125 27.8188H55.9214V30.91H59.0125V27.8188Z" fill="#B3DDFF"/>
<path d="M59.0125 21.6367H55.9214V24.7279H59.0125V21.6367Z" fill="#B3DDFF"/>
<path d="M59.0125 24.7275H55.9214V27.8187H59.0125V24.7275Z" fill="#B3DDFF"/>
<path d="M59.0125 18.5454H55.9214V21.6366H59.0125V18.5454Z" fill="#B3DDFF"/>
<path d="M59.0125 37.0908H55.9214V40.182H59.0125V37.0908Z" fill="#98C6F4"/>
<path d="M117.74 37.0908H114.648V40.182H117.74V37.0908Z" fill="#98C6F4"/>
<path d="M123.922 37.0908H120.831V40.182H123.922V37.0908Z" fill="#98C6F4"/>
<path d="M130.103 37.0908H127.012V40.182H130.103V37.0908Z" fill="#98C6F4"/>
<path d="M120.831 37.0908H117.74V40.182H120.831V37.0908Z" fill="#98C6F4"/>
<path d="M127.013 37.0908H123.922V40.182H127.013V37.0908Z" fill="#98C6F4"/>
<path d="M99.1942 37.0908H96.103V40.182H99.1942V37.0908Z" fill="#98C6F4"/>
<path d="M93.012 37.0908H89.9209V40.182H93.012V37.0908Z" fill="#B3DDFF"/>
<path d="M89.9222 37.0908H86.8311V40.182H89.9222V37.0908Z" fill="#B3DDFF"/>
<path d="M86.8314 37.0908H83.7402V40.182H86.8314V37.0908Z" fill="#B3DDFF"/>
<path d="M105.377 37.0908H102.286V40.182H105.377V37.0908Z" fill="#98C6F4"/>
<path d="M108.468 37.0908H105.376V40.182H108.468V37.0908Z" fill="#98C6F4"/>
<path d="M111.557 37.0908H108.466V40.182H111.557V37.0908Z" fill="#98C6F4"/>
<path d="M114.649 37.0908H111.558V40.182H114.649V37.0908Z" fill="#98C6F4"/>
<path d="M102.285 37.0908H99.1943V40.182H102.285V37.0908Z" fill="#98C6F4"/>
<path d="M96.1033 37.0908H93.0122V40.182H96.1033V37.0908Z" fill="#B3DDFF"/>
<path d="M49.7406 37.0908H46.6494V40.182H49.7406V37.0908Z" fill="#98C6F4"/>
<path d="M49.7406 33.9995H46.6494V37.0907H49.7406V33.9995Z" fill="#98C6F4"/>
<path d="M49.7406 27.8188H46.6494V30.91H49.7406V27.8188Z" fill="#B3DDFF"/>
<path d="M49.7406 24.7275H46.6494V27.8187H49.7406V24.7275Z" fill="#B3DDFF"/>
<path d="M49.7406 30.9087H46.6494V33.9998H49.7406V30.9087Z" fill="#B3DDFF"/>
<path d="M49.7406 40.1821H46.6494V43.2733H49.7406V40.1821Z" fill="#98C6F4"/>
<path d="M49.7406 15.4541H46.6494V18.5452H49.7406V15.4541Z" fill="#CAEAFF"/>
<path d="M49.7406 18.5454H46.6494V21.6366H49.7406V18.5454Z" fill="#CAEAFF"/>
<path d="M49.7406 21.6367H46.6494V24.7279H49.7406V21.6367Z" fill="#B3DDFF"/>
<path d="M89.9222 46.3643H86.8311V49.4554H89.9222V46.3643Z" fill="#98C6F4"/>
<path d="M93.012 46.3643H89.9209V49.4554H93.012V46.3643Z" fill="#98C6F4"/>
<path d="M86.8314 46.3643H83.7402V49.4554H86.8314V46.3643Z" fill="#98C6F4"/>
<path d="M83.7401 46.3643H80.6489V49.4554H83.7401V46.3643Z" fill="#98C6F4"/>
<path d="M46.6492 33.9995H43.5581V37.0907H46.6492V33.9995Z" fill="#98C6F4"/>
<path d="M46.6492 37.0908H43.5581V40.182H46.6492V37.0908Z" fill="#98C6F4"/>
<path d="M46.6492 15.4541H43.5581V18.5452H46.6492V15.4541Z" fill="#CAEAFF"/>
<path d="M46.6492 27.8188H43.5581V30.91H46.6492V27.8188Z" fill="#B3DDFF"/>
<path d="M46.6492 30.9087H43.5581V33.9998H46.6492V30.9087Z" fill="#B3DDFF"/>
<path d="M46.6492 24.7275H43.5581V27.8187H46.6492V24.7275Z" fill="#B3DDFF"/>
<path d="M46.6492 18.5454H43.5581V21.6366H46.6492V18.5454Z" fill="#CAEAFF"/>
<path d="M46.6492 21.6367H43.5581V24.7279H46.6492V21.6367Z" fill="#CAEAFF"/>
<path d="M71.3753 43.2729H68.2842V46.3641H71.3753V43.2729Z" fill="#98C6F4"/>
<path d="M59.0125 43.2729H55.9214V46.3641H59.0125V43.2729Z" fill="#98C6F4"/>
<path d="M74.4666 43.2729H71.3755V46.3641H74.4666V43.2729Z" fill="#98C6F4"/>
<path d="M68.286 43.2729H65.1948V46.3641H68.286V43.2729Z" fill="#98C6F4"/>
<path d="M83.7401 43.2729H80.6489V46.3641H83.7401V43.2729Z" fill="#98C6F4"/>
<path d="M86.8314 43.2729H83.7402V46.3641H86.8314V43.2729Z" fill="#98C6F4"/>
<path d="M80.6488 43.2729H77.5576V46.3641H80.6488V43.2729Z" fill="#98C6F4"/>
<path d="M77.5579 43.2729H74.4668V46.3641H77.5579V43.2729Z" fill="#98C6F4"/>
<path d="M52.8304 18.5454H49.7393V21.6366H52.8304V18.5454Z" fill="#CAEAFF"/>
<path d="M52.8304 30.9087H49.7393V33.9998H52.8304V30.9087Z" fill="#B3DDFF"/>
<path d="M52.8304 24.7275H49.7393V27.8187H52.8304V24.7275Z" fill="#B3DDFF"/>
<path d="M52.8304 27.8188H49.7393V30.91H52.8304V27.8188Z" fill="#B3DDFF"/>
<path d="M52.8304 21.6367H49.7393V24.7279H52.8304V21.6367Z" fill="#B3DDFF"/>
<path d="M55.9212 43.2729H52.8301V46.3641H55.9212V43.2729Z" fill="#98C6F4"/>
<path d="M52.8304 40.1821H49.7393V43.2733H52.8304V40.1821Z" fill="#98C6F4"/>
<path d="M52.8304 37.0908H49.7393V40.182H52.8304V37.0908Z" fill="#98C6F4"/>
<path d="M52.8304 33.9995H49.7393V37.0907H52.8304V33.9995Z" fill="#98C6F4"/>
<path d="M102.285 43.2729H99.1943V46.3641H102.285V43.2729Z" fill="#98C6F4"/>
<path d="M99.1942 43.2729H96.103V46.3641H99.1942V43.2729Z" fill="#98C6F4"/>
<path d="M96.1033 43.2729H93.0122V46.3641H96.1033V43.2729Z" fill="#98C6F4"/>
<path d="M93.012 43.2729H89.9209V46.3641H93.012V43.2729Z" fill="#98C6F4"/>
<path d="M89.9222 43.2729H86.8311V46.3641H89.9222V43.2729Z" fill="#98C6F4"/>
<path d="M52.8304 15.4541H49.7393V18.5452H52.8304V15.4541Z" fill="#CAEAFF"/>
<path d="M52.8304 12.3633H49.7393V15.4544H52.8304V12.3633Z" fill="#CAEAFF"/>
<path d="M99.1942 15.4541H96.103V18.5452H99.1942V15.4541Z" fill="#CAEAFF"/>
<path d="M96.1033 15.4541H93.0122V18.5452H96.1033V15.4541Z" fill="#CAEAFF"/>
<path d="M74.4666 21.6367H71.3755V24.7279H74.4666V21.6367Z" fill="#B3DDFF"/>
<path d="M80.6488 9.27344H77.5576V12.3646H80.6488V9.27344Z" fill="#CAEAFF"/>
<path d="M80.6488 12.3633H77.5576V15.4544H80.6488V12.3633Z" fill="#CAEAFF"/>
<path d="M80.6488 6.18213H77.5576V9.27327H80.6488V6.18213Z" fill="#CAEAFF"/>
<path d="M80.6488 15.4541H77.5576V18.5452H80.6488V15.4541Z" fill="#CAEAFF"/>
<path d="M86.8314 15.4541H83.7402V18.5452H86.8314V15.4541Z" fill="#B3DDFF"/>
<path d="M83.7401 15.4541H80.6489V18.5452H83.7401V15.4541Z" fill="#CAEAFF"/>
<path d="M89.9222 15.4541H86.8311V18.5452H89.9222V15.4541Z" fill="#CAEAFF"/>
<path d="M93.012 15.4541H89.9209V18.5452H93.012V15.4541Z" fill="#CAEAFF"/>
<path d="M74.4666 3.09131H71.3755V6.18245H74.4666V3.09131Z" fill="#CAEAFF"/>
<path d="M74.4666 6.18213H71.3755V9.27327H74.4666V6.18213Z" fill="#CAEAFF"/>
<path d="M74.4666 18.5454H71.3755V21.6366H74.4666V18.5454Z" fill="#B3DDFF"/>
<path d="M74.4666 15.4541H71.3755V18.5452H74.4666V15.4541Z" fill="#B3DDFF"/>
<path d="M74.4666 12.3633H71.3755V15.4544H74.4666V12.3633Z" fill="#CAEAFF"/>
<path d="M74.4666 9.27344H71.3755V12.3646H74.4666V9.27344Z" fill="#CAEAFF"/>
<path d="M77.5579 18.5454H74.4668V21.6366H77.5579V18.5454Z" fill="#CAEAFF"/>
<path d="M80.6488 18.5454H77.5576V21.6366H80.6488V18.5454Z" fill="#CAEAFF"/>
<path d="M77.5579 15.4541H74.4668V18.5452H77.5579V15.4541Z" fill="#CAEAFF"/>
<path d="M77.5579 12.3633H74.4668V15.4544H77.5579V12.3633Z" fill="#CAEAFF"/>
<path d="M86.8314 18.5454H83.7402V21.6366H86.8314V18.5454Z" fill="#B3DDFF"/>
<path d="M93.012 18.5454H89.9209V21.6366H93.012V18.5454Z" fill="#CAEAFF"/>
<path d="M83.7401 18.5454H80.6489V21.6366H83.7401V18.5454Z" fill="#B3DDFF"/>
<path d="M89.9222 18.5454H86.8311V21.6366H89.9222V18.5454Z" fill="#B3DDFF"/>
<path d="M77.5579 9.27344H74.4668V12.3646H77.5579V9.27344Z" fill="#CAEAFF"/>
<path d="M77.5579 6.18213H74.4668V9.27327H77.5579V6.18213Z" fill="#CAEAFF"/>
<path d="M96.1033 18.5454H93.0122V21.6366H96.1033V18.5454Z" fill="#CAEAFF"/>
<path d="M77.5579 3.09131H74.4668V6.18245H77.5579V3.09131Z" fill="#CAEAFF"/>
<path d="M99.1942 18.5454H96.103V21.6366H99.1942V18.5454Z" fill="#CAEAFF"/>
<path d="M108.468 18.5454H105.376V21.6366H108.468V18.5454Z" fill="#CAEAFF"/>
<path d="M105.377 18.5454H102.286V21.6366H105.377V18.5454Z" fill="#CAEAFF"/>
<path d="M102.285 18.5454H99.1943V21.6366H102.285V18.5454Z" fill="#CAEAFF"/>
<path d="M120.831 18.5454H117.74V21.6366H120.831V18.5454Z" fill="#CAEAFF"/>
<path d="M123.922 18.5454H120.831V21.6366H123.922V18.5454Z" fill="#CAEAFF"/>
<path d="M117.74 18.5454H114.648V21.6366H117.74V18.5454Z" fill="#CAEAFF"/>
<path d="M83.7401 9.27344H80.6489V12.3646H83.7401V9.27344Z" fill="#CAEAFF"/>
<path d="M83.7401 12.3633H80.6489V15.4544H83.7401V12.3633Z" fill="#CAEAFF"/>
<path d="M86.8314 12.3633H83.7402V15.4544H86.8314V12.3633Z" fill="#CAEAFF"/>
<path d="M96.1033 12.3633H93.0122V15.4544H96.1033V12.3633Z" fill="#CAEAFF"/>
<path d="M93.012 12.3633H89.9209V15.4544H93.012V12.3633Z" fill="#CAEAFF"/>
<path d="M89.9222 12.3633H86.8311V15.4544H89.9222V12.3633Z" fill="#CAEAFF"/>
<path d="M86.8314 9.27344H83.7402V12.3646H86.8314V9.27344Z" fill="#CAEAFF"/>
<path d="M93.012 9.27344H89.9209V12.3646H93.012V9.27344Z" fill="#CAEAFF"/>
<path d="M89.9222 9.27344H86.8311V12.3646H89.9222V9.27344Z" fill="#CAEAFF"/>
<path d="M65.1947 6.18213H62.1035V9.27327H65.1947V6.18213Z" fill="#CAEAFF"/>
<path d="M65.1947 3.09131H62.1035V6.18245H65.1947V3.09131Z" fill="#CAEAFF"/>
<path d="M108.468 27.8188H105.376V30.91H108.468V27.8188Z" fill="#B3DDFF"/>
<path d="M123.922 27.8188H120.831V30.91H123.922V27.8188Z" fill="#B3DDFF"/>
<path d="M120.831 27.8188H117.74V30.91H120.831V27.8188Z" fill="#B3DDFF"/>
<path d="M136.285 24.7275H133.194V27.8187H136.285V24.7275Z" fill="#98C6F4"/>
<path d="M111.557 27.8188H108.466V30.91H111.557V27.8188Z" fill="#B3DDFF"/>
<path d="M117.74 27.8188H114.648V30.91H117.74V27.8188Z" fill="#B3DDFF"/>
<path d="M136.285 27.8188H133.194V30.91H136.285V27.8188Z" fill="#98C6F4"/>
<path d="M133.194 27.8188H130.103V30.91H133.194V27.8188Z" fill="#98C6F4"/>
<path d="M130.103 27.8188H127.012V30.91H130.103V27.8188Z" fill="#98C6F4"/>
<path d="M127.013 27.8188H123.922V30.91H127.013V27.8188Z" fill="#B3DDFF"/>
<path d="M114.649 27.8188H111.558V30.91H114.649V27.8188Z" fill="#B3DDFF"/>
<path d="M86.8314 27.8188H83.7402V30.91H86.8314V27.8188Z" fill="#B3DDFF"/>
<path d="M83.7401 27.8188H80.6489V30.91H83.7401V27.8188Z" fill="#B3DDFF"/>
<path d="M80.6488 27.8188H77.5576V30.91H80.6488V27.8188Z" fill="#B3DDFF"/>
<path d="M89.9222 27.8188H86.8311V30.91H89.9222V27.8188Z" fill="#B3DDFF"/>
<path d="M105.377 27.8188H102.286V30.91H105.377V27.8188Z" fill="#B3DDFF"/>
<path d="M99.1942 27.8188H96.103V30.91H99.1942V27.8188Z" fill="#B3DDFF"/>
<path d="M102.285 27.8188H99.1943V30.91H102.285V27.8188Z" fill="#B3DDFF"/>
<path d="M96.1033 27.8188H93.0122V30.91H96.1033V27.8188Z" fill="#B3DDFF"/>
<path d="M93.012 27.8188H89.9209V30.91H93.012V27.8188Z" fill="#B3DDFF"/>
<path d="M136.285 21.6367H133.194V24.7279H136.285V21.6367Z" fill="#98C6F4"/>
<path d="M65.1947 9.27344H62.1035V12.3646H65.1947V9.27344Z" fill="#CAEAFF"/>
<path d="M77.5579 27.8188H74.4668V30.91H77.5579V27.8188Z" fill="#B3DDFF"/>
<path d="M80.6488 30.9087H77.5576V33.9998H80.6488V30.9087Z" fill="#B3DDFF"/>
<path d="M86.8314 30.9087H83.7402V33.9998H86.8314V30.9087Z" fill="#B3DDFF"/>
<path d="M83.7401 30.9087H80.6489V33.9998H83.7401V30.9087Z" fill="#B3DDFF"/>
<path d="M77.5579 30.9087H74.4668V33.9998H77.5579V30.9087Z" fill="#B3DDFF"/>
<path d="M89.9222 30.9087H86.8311V33.9998H89.9222V30.9087Z" fill="#B3DDFF"/>
<path d="M96.1033 30.9087H93.0122V33.9998H96.1033V30.9087Z" fill="#B3DDFF"/>
<path d="M74.4666 30.9087H71.3755V33.9998H74.4666V30.9087Z" fill="#B3DDFF"/>
<path d="M99.1942 30.9087H96.103V33.9998H99.1942V30.9087Z" fill="#B3DDFF"/>
<path d="M93.012 30.9087H89.9209V33.9998H93.012V30.9087Z" fill="#B3DDFF"/>
<path d="M65.1947 27.8188H62.1035V30.91H65.1947V27.8188Z" fill="#B3DDFF"/>
<path d="M65.1947 15.4541H62.1035V18.5452H65.1947V15.4541Z" fill="#B3DDFF"/>
<path d="M65.1947 18.5454H62.1035V21.6366H65.1947V18.5454Z" fill="#B3DDFF"/>
<path d="M65.1947 12.3633H62.1035V15.4544H65.1947V12.3633Z" fill="#CAEAFF"/>
<path d="M65.1947 21.6367H62.1035V24.7279H65.1947V21.6367Z" fill="#B3DDFF"/>
<path d="M102.285 30.9087H99.1943V33.9998H102.285V30.9087Z" fill="#B3DDFF"/>
<path d="M68.286 30.9087H65.1948V33.9998H68.286V30.9087Z" fill="#B3DDFF"/>
<path d="M65.1947 24.7275H62.1035V27.8187H65.1947V24.7275Z" fill="#B3DDFF"/>
<path d="M65.1947 30.9087H62.1035V33.9998H65.1947V30.9087Z" fill="#B3DDFF"/>
<path d="M71.3753 30.9087H68.2842V33.9998H71.3753V30.9087Z" fill="#CAEAFF"/>
<path d="M130.103 30.9087H127.012V33.9998H130.103V30.9087Z" fill="#98C6F4"/>
<path d="M111.557 30.9087H108.466V33.9998H111.557V30.9087Z" fill="#98C6F4"/>
<path d="M114.649 30.9087H111.558V33.9998H114.649V30.9087Z" fill="#B3DDFF"/>
<path d="M133.194 30.9087H130.103V33.9998H133.194V30.9087Z" fill="#98C6F4"/>
<path d="M117.74 30.9087H114.648V33.9998H117.74V30.9087Z" fill="#B3DDFF"/>
<path d="M108.468 30.9087H105.376V33.9998H108.468V30.9087Z" fill="#98C6F4"/>
<path d="M105.377 30.9087H102.286V33.9998H105.377V30.9087Z" fill="#B3DDFF"/>
<path d="M127.013 30.9087H123.922V33.9998H127.013V30.9087Z" fill="#98C6F4"/>
<path d="M123.922 30.9087H120.831V33.9998H123.922V30.9087Z" fill="#B3DDFF"/>
<path d="M120.831 30.9087H117.74V33.9998H120.831V30.9087Z" fill="#B3DDFF"/>
<path d="M86.8314 21.6367H83.7402V24.7279H86.8314V21.6367Z" fill="#B3DDFF"/>
<path d="M71.3753 18.5454H68.2842V21.6366H71.3753V18.5454Z" fill="#B3DDFF"/>
<path d="M71.3753 21.6367H68.2842V24.7279H71.3753V21.6367Z" fill="#B3DDFF"/>
<path d="M71.3753 24.7275H68.2842V27.8187H71.3753V24.7275Z" fill="#B3DDFF"/>
<path d="M71.3753 15.4541H68.2842V18.5452H71.3753V15.4541Z" fill="#B3DDFF"/>
<path d="M77.5579 24.7275H74.4668V27.8187H77.5579V24.7275Z" fill="#B3DDFF"/>
<path d="M83.7401 24.7275H80.6489V27.8187H83.7401V24.7275Z" fill="#B3DDFF"/>
<path d="M80.6488 24.7275H77.5576V27.8187H80.6488V24.7275Z" fill="#B3DDFF"/>
<path d="M74.4666 24.7275H71.3755V27.8187H74.4666V24.7275Z" fill="#B3DDFF"/>
<path d="M71.3753 12.3633H68.2842V15.4544H71.3753V12.3633Z" fill="#B3DDFF"/>
<path d="M71.3753 0H68.2842V3.09114H71.3753V0Z" fill="#CAEAFF"/>
<path d="M71.3753 6.18213H68.2842V9.27327H71.3753V6.18213Z" fill="#CAEAFF"/>
<path d="M71.3753 3.09131H68.2842V6.18245H71.3753V3.09131Z" fill="#CAEAFF"/>
<path d="M71.3753 9.27344H68.2842V12.3646H71.3753V9.27344Z" fill="#CAEAFF"/>
<path d="M117.74 21.6367H114.648V24.7279H117.74V21.6367Z" fill="#CAEAFF"/>
<path d="M108.468 21.6367H105.376V24.7279H108.468V21.6367Z" fill="#CAEAFF"/>
<path d="M111.557 21.6367H108.466V24.7279H111.557V21.6367Z" fill="#CAEAFF"/>
<path d="M120.831 21.6367H117.74V24.7279H120.831V21.6367Z" fill="#CAEAFF"/>
<path d="M114.649 21.6367H111.558V24.7279H114.649V21.6367Z" fill="#CAEAFF"/>
<path d="M130.103 21.6367H127.012V24.7279H130.103V21.6367Z" fill="#CAEAFF"/>
<path d="M123.922 21.6367H120.831V24.7279H123.922V21.6367Z" fill="#CAEAFF"/>
<path d="M127.013 21.6367H123.922V24.7279H127.013V21.6367Z" fill="#CAEAFF"/>
<path d="M96.1033 21.6367H93.0122V24.7279H96.1033V21.6367Z" fill="#B3DDFF"/>
<path d="M77.5579 21.6367H74.4668V24.7279H77.5579V21.6367Z" fill="#CAEAFF"/>
<path d="M83.7401 21.6367H80.6489V24.7279H83.7401V21.6367Z" fill="#B3DDFF"/>
<path d="M89.9222 21.6367H86.8311V24.7279H89.9222V21.6367Z" fill="#B3DDFF"/>
<path d="M80.6488 21.6367H77.5576V24.7279H80.6488V21.6367Z" fill="#CAEAFF"/>
<path d="M105.377 21.6367H102.286V24.7279H105.377V21.6367Z" fill="#CAEAFF"/>
<path d="M93.012 21.6367H89.9209V24.7279H93.012V21.6367Z" fill="#B3DDFF"/>
<path d="M99.1942 21.6367H96.103V24.7279H99.1942V21.6367Z" fill="#CAEAFF"/>
<path d="M102.285 21.6367H99.1943V24.7279H102.285V21.6367Z" fill="#CAEAFF"/>
<path d="M74.4666 27.8188H71.3755V30.91H74.4666V27.8188Z" fill="#B3DDFF"/>
<path d="M86.8314 24.7275H83.7402V27.8187H86.8314V24.7275Z" fill="#B3DDFF"/>
<path d="M68.286 12.3633H65.1948V15.4544H68.286V12.3633Z" fill="#CAEAFF"/>
<path d="M68.286 18.5454H65.1948V21.6366H68.286V18.5454Z" fill="#B3DDFF"/>
<path d="M68.286 15.4541H65.1948V18.5452H68.286V15.4541Z" fill="#B3DDFF"/>
<path d="M68.286 9.27344H65.1948V12.3646H68.286V9.27344Z" fill="#CAEAFF"/>
<path d="M68.286 24.7275H65.1948V27.8187H68.286V24.7275Z" fill="#B3DDFF"/>
<path d="M68.286 27.8188H65.1948V30.91H68.286V27.8188Z" fill="#B3DDFF"/>
<path d="M71.3753 27.8188H68.2842V30.91H71.3753V27.8188Z" fill="#B3DDFF"/>
<path d="M68.286 6.18213H65.1948V9.27327H68.286V6.18213Z" fill="#CAEAFF"/>
<path d="M89.9222 24.7275H86.8311V27.8187H89.9222V24.7275Z" fill="#B3DDFF"/>
<path d="M68.286 3.09131H65.1948V6.18245H68.286V3.09131Z" fill="#CAEAFF"/>
<path d="M68.286 0H65.1948V3.09114H68.286V0Z" fill="#CAEAFF"/>
<path d="M68.286 21.6367H65.1948V24.7279H68.286V21.6367Z" fill="#B3DDFF"/>
<path d="M130.103 24.7275H127.012V27.8187H130.103V24.7275Z" fill="#B3DDFF"/>
<path d="M133.194 24.7275H130.103V27.8187H133.194V24.7275Z" fill="#98C6F4"/>
<path d="M127.013 24.7275H123.922V27.8187H127.013V24.7275Z" fill="#B3DDFF"/>
<path d="M123.922 24.7275H120.831V27.8187H123.922V24.7275Z" fill="#B3DDFF"/>
<path d="M133.194 21.6367H130.103V24.7279H133.194V21.6367Z" fill="#98C6F4"/>
<path d="M120.831 24.7275H117.74V27.8187H120.831V24.7275Z" fill="#B3DDFF"/>
<path d="M102.285 24.7275H99.1943V27.8187H102.285V24.7275Z" fill="#B3DDFF"/>
<path d="M99.1942 24.7275H96.103V27.8187H99.1942V24.7275Z" fill="#B3DDFF"/>
<path d="M96.1033 24.7275H93.0122V27.8187H96.1033V24.7275Z" fill="#B3DDFF"/>
<path d="M93.012 24.7275H89.9209V27.8187H93.012V24.7275Z" fill="#CAEAFF"/>
<path d="M114.649 24.7275H111.558V27.8187H114.649V24.7275Z" fill="#B3DDFF"/>
<path d="M117.74 24.7275H114.648V27.8187H117.74V24.7275Z" fill="#B3DDFF"/>
<path d="M111.557 24.7275H108.466V27.8187H111.557V24.7275Z" fill="#B3DDFF"/>
<path d="M105.377 24.7275H102.286V27.8187H105.377V24.7275Z" fill="#B3DDFF"/>
<path d="M108.468 24.7275H105.376V27.8187H108.468V24.7275Z" fill="#B3DDFF"/>
<path d="M31.1951 37.0908H28.104V40.182H31.1951V37.0908Z" fill="#98C6F4"/>
<path d="M31.1951 27.8188H28.104V30.91H31.1951V27.8188Z" fill="#CAEAFF"/>
<path d="M31.1951 30.9087H28.104V33.9998H31.1951V30.9087Z" fill="#CAEAFF"/>
<path d="M31.1951 40.1821H28.104V43.2733H31.1951V40.1821Z" fill="#98C6F4"/>
<path d="M31.1951 33.9995H28.104V37.0907H31.1951V33.9995Z" fill="#B3DDFF"/>
<path d="M31.1951 43.2729H28.104V46.3641H31.1951V43.2729Z" fill="#98C6F4"/>
<path d="M31.1951 21.6367H28.104V24.7279H31.1951V21.6367Z" fill="#CAEAFF"/>
<path d="M31.1951 24.7275H28.104V27.8187H31.1951V24.7275Z" fill="#CAEAFF"/>
<path d="M25.013 43.2729H21.9219V46.3641H25.013V43.2729Z" fill="#98C6F4"/>
<path d="M25.013 40.1821H21.9219V43.2733H25.013V40.1821Z" fill="#98C6F4"/>
<path d="M25.013 37.0908H21.9219V40.182H25.013V37.0908Z" fill="#98C6F4"/>
<path d="M25.013 33.9995H21.9219V37.0907H25.013V33.9995Z" fill="#B3DDFF"/>
<path d="M25.013 27.8188H21.9219V30.91H25.013V27.8188Z" fill="#CAEAFF"/>
<path d="M25.013 30.9087H21.9219V33.9998H25.013V30.9087Z" fill="#B3DDFF"/>
<path d="M28.1038 27.8188H25.0127V30.91H28.1038V27.8188Z" fill="#CAEAFF"/>
<path d="M28.1038 24.7275H25.0127V27.8187H28.1038V24.7275Z" fill="#CAEAFF"/>
<path d="M28.1038 40.1821H25.0127V43.2733H28.1038V40.1821Z" fill="#98C6F4"/>
<path d="M28.1038 30.9087H25.0127V33.9998H28.1038V30.9087Z" fill="#CAEAFF"/>
<path d="M28.1038 37.0908H25.0127V40.182H28.1038V37.0908Z" fill="#98C6F4"/>
<path d="M28.1038 33.9995H25.0127V37.0907H28.1038V33.9995Z" fill="#B3DDFF"/>
<path d="M28.1038 43.2729H25.0127V46.3641H28.1038V43.2729Z" fill="#98C6F4"/>
<path d="M40.4671 21.6367H37.376V24.7279H40.4671V21.6367Z" fill="#CAEAFF"/>
<path d="M40.4671 27.8188H37.376V30.91H40.4671V27.8188Z" fill="#B3DDFF"/>
<path d="M40.4671 33.9995H37.376V37.0907H40.4671V33.9995Z" fill="#98C6F4"/>
<path d="M40.4671 30.9087H37.376V33.9998H40.4671V30.9087Z" fill="#B3DDFF"/>
<path d="M40.4671 37.0908H37.376V40.182H40.4671V37.0908Z" fill="#98C6F4"/>
<path d="M40.4671 24.7275H37.376V27.8187H40.4671V24.7275Z" fill="#CAEAFF"/>
<path d="M43.5579 30.9087H40.4668V33.9998H43.5579V30.9087Z" fill="#B3DDFF"/>
<path d="M43.5579 27.8188H40.4668V30.91H43.5579V27.8188Z" fill="#B3DDFF"/>
<path d="M43.5579 24.7275H40.4668V27.8187H43.5579V24.7275Z" fill="#B3DDFF"/>
<path d="M43.5579 21.6367H40.4668V24.7279H43.5579V21.6367Z" fill="#CAEAFF"/>
<path d="M43.5579 18.5454H40.4668V21.6366H43.5579V18.5454Z" fill="#CAEAFF"/>
<path d="M43.5579 37.0908H40.4668V40.182H43.5579V37.0908Z" fill="#98C6F4"/>
<path d="M43.5579 15.4541H40.4668V18.5452H43.5579V15.4541Z" fill="#CAEAFF"/>
<path d="M43.5579 33.9995H40.4668V37.0907H43.5579V33.9995Z" fill="#98C6F4"/>
<path d="M34.285 21.6367H31.1938V24.7279H34.285V21.6367Z" fill="#CAEAFF"/>
<path d="M34.285 27.8188H31.1938V30.91H34.285V27.8188Z" fill="#CAEAFF"/>
<path d="M34.285 24.7275H31.1938V27.8187H34.285V24.7275Z" fill="#CAEAFF"/>
<path d="M34.285 37.0908H31.1938V40.182H34.285V37.0908Z" fill="#98C6F4"/>
<path d="M34.285 43.2729H31.1938V46.3641H34.285V43.2729Z" fill="#98C6F4"/>
<path d="M34.285 33.9995H31.1938V37.0907H34.285V33.9995Z" fill="#B3DDFF"/>
<path d="M34.285 30.9087H31.1938V33.9998H34.285V30.9087Z" fill="#B3DDFF"/>
<path d="M34.285 40.1821H31.1938V43.2733H34.285V40.1821Z" fill="#98C6F4"/>
<path d="M37.3758 37.0908H34.2847V40.182H37.3758V37.0908Z" fill="#98C6F4"/>
<path d="M37.3758 40.1821H34.2847V43.2733H37.3758V40.1821Z" fill="#98C6F4"/>
<path d="M37.3758 24.7275H34.2847V27.8187H37.3758V24.7275Z" fill="#CAEAFF"/>
<path d="M37.3758 33.9995H34.2847V37.0907H37.3758V33.9995Z" fill="#98C6F4"/>
<path d="M37.3758 30.9087H34.2847V33.9998H37.3758V30.9087Z" fill="#B3DDFF"/>
<path d="M37.3758 27.8188H34.2847V30.91H37.3758V27.8188Z" fill="#B3DDFF"/>
<path d="M37.3758 21.6367H34.2847V24.7279H37.3758V21.6367Z" fill="#CAEAFF"/>
</g>
<defs>
<clipPath id="clip0_24_64638">
<rect width="136" height="49.4539" fill="white" transform="translate(0.285156)"/>
</clipPath>
</defs>
</svg>
