<svg width="35" height="51" viewBox="0 0 35 51" fill="none" xmlns="http://www.w3.org/2000/svg">
<g clip-path="url(#clip0_24_36718)">
<path d="M21.6597 2.06884C21.7563 2.06884 21.85 2.09519 21.9525 2.09812C23.3663 2.12446 23.3634 2.12446 23.3634 3.57639V25.4724H21.7007L21.648 24.0087C21.648 18.3181 21.6558 12.6265 21.6714 6.93397C21.6714 5.35031 21.6714 5.35032 20.038 5.47033L16.5458 5.46155H15.0821H14.7894C14.7704 5.44859 14.748 5.44165 14.725 5.44165C14.702 5.44165 14.6796 5.44859 14.6606 5.46155H13.4692C13.3755 5.43228 13.3433 5.47619 13.358 5.56401C13.358 6.95446 13.3287 8.34199 13.3316 9.72951C13.3316 14.4327 13.3394 19.1358 13.3551 23.839C13.3551 24.3307 13.3287 24.8225 13.317 25.3026C13.0591 25.4198 12.7792 25.4804 12.4959 25.4804C12.2127 25.4804 11.9327 25.4198 11.6748 25.3026C11.6748 23.0974 11.6748 20.8931 11.6748 18.6899C11.7392 18.4701 11.7392 18.2364 11.6748 18.0166V14.0326C11.7363 13.8623 11.7363 13.6759 11.6748 13.5057V4.81755C11.7392 4.59775 11.7392 4.36408 11.6748 4.14428C11.6748 3.8779 11.6748 3.60859 11.6748 3.34221C11.6748 2.08934 11.6748 2.08934 12.9452 2.10104C13.238 2.18594 13.3258 2.37035 13.3316 2.6865C13.3551 3.85741 13.3697 3.85741 14.5025 3.81057C14.646 3.81057 14.7953 3.7813 14.9358 3.76666L19.9121 3.78715C21.6685 3.90132 21.6685 3.90132 21.6685 2.21228C21.6685 2.16545 21.6685 2.11568 21.6685 2.06592L21.6597 2.06884Z" fill="black"/>
<path d="M28.1112 50.4593C24.3409 50.4593 20.5735 50.4798 16.8061 50.4798C13.4983 50.4798 10.1934 50.4798 6.88557 50.4593L6.78019 50.3539L6.68359 50.0612V49.6045C6.68359 49.5899 6.72457 49.5752 6.72165 49.5664C6.71302 49.5342 6.70126 49.5028 6.68652 49.4728V49.1654C6.71287 49.1186 6.74214 49.0747 6.77141 49.0278H28.2546L28.3659 49.3206V49.6133C28.1815 49.8387 28.2986 50.108 28.2488 50.3539L28.1112 50.4593Z" fill="black"/>
<path d="M13.472 0.485352H21.522L21.6391 0.596588V1.33426C21.4254 1.55381 21.5454 1.82604 21.5132 2.07486L19.9237 2.13633C18.2669 2.08071 16.61 2.06315 14.9474 2.13633L13.2788 2.069L13.3432 0.590733L13.472 0.485352Z" fill="black"/>
<path d="M33.5239 37.1756C34.9876 37.0848 34.9876 37.0849 34.9876 38.5543C34.9876 40.5771 34.9524 42.5998 35.0081 44.6196C35.0285 45.3544 34.847 45.653 34.1035 45.5154C33.9093 45.4923 33.7137 45.4825 33.5181 45.4861L33.5239 37.1756Z" fill="black"/>
<path d="M0.152733 37.1782H0.588896L0.881623 37.9539C1.04262 37.5295 1.2973 37.4739 1.60759 37.6173C1.631 37.8661 1.6515 38.1179 1.67491 38.3667L1.61637 44.353C1.32364 44.4525 1.0719 44.1656 0.790878 44.1627C0.717696 44.4759 1.06604 44.552 1.02799 44.795C0.995787 44.9852 1.15093 45.319 0.814296 45.2955C0.600605 45.2809 0.228842 45.3424 0.173224 44.9589C0.152737 44.787 0.145886 44.6138 0.152733 44.4408C0.152733 42.4707 0.152733 40.5007 0.152733 38.5306C0.152733 38.273 0.243478 37.992 0.0327148 37.7637V37.3275L0.152733 37.1782Z" fill="black"/>
<path d="M1.61669 37.1579C1.63426 36.3617 1.65182 35.5655 1.66353 34.7663C1.68109 33.6305 1.54059 33.8267 2.61489 33.7857C2.88128 33.7857 3.2706 33.9964 3.39355 33.5164C3.5926 33.49 3.84435 33.5983 3.9468 33.3202C4.12537 32.8372 4.56738 32.7611 4.98013 32.6382C4.98013 32.9777 4.99477 33.3173 5.00062 33.6569C4.70529 33.8256 4.35724 33.8768 4.02584 33.8003C3.53698 33.7593 3.34378 33.9086 3.3672 34.4326C3.40818 35.343 3.3672 36.2592 3.3672 37.1725H1.61084L1.61669 37.1579Z" fill="black"/>
<path d="M9.88009 27.103H9.91814H11.5691C11.5691 27.6709 11.5691 28.2388 11.5691 28.8067C11.253 28.8067 10.9368 28.8535 10.6236 28.836C10.2314 28.8126 10.0645 28.9238 10.0557 29.357C10.0323 30.487 10.0089 30.4899 8.8614 30.4635C8.69161 30.4635 8.52183 30.446 8.35205 30.4372V28.8389C8.7648 28.8389 9.17461 28.8389 9.58443 28.8389C9.84496 28.8389 10.0118 28.7482 9.99718 28.4671C9.9679 28.0076 10.1055 27.5392 9.88009 27.103Z" fill="#48BBEC"/>
<path d="M31.7673 33.815C33.3685 33.7536 33.3714 33.7536 33.3685 35.3167C33.3685 35.9022 33.3685 36.4701 33.3539 37.0468C33.3539 37.0614 33.3275 37.0819 33.3334 37.0936C33.3434 37.1235 33.3572 37.152 33.3744 37.1785L33.0816 37.2107C32.8875 37.1861 32.6915 37.1792 32.4962 37.1902C31.9107 37.2722 31.6736 37.0702 31.7175 36.4408C31.779 35.5626 31.7526 34.6844 31.7614 33.8063L31.7673 33.815Z" fill="black"/>
<path d="M31.6623 47.7369C31.6566 47.9322 31.6615 48.1276 31.677 48.3224C31.7238 48.7351 31.5482 48.8698 31.1413 48.861C30.228 48.8434 29.3117 48.861 28.3984 48.861V47.2773H31.5804H31.6301H31.677V47.5203C31.6594 47.5964 31.6623 47.6667 31.6623 47.7369Z" fill="black"/>
<path d="M6.5927 48.8493C5.71452 48.8493 4.85975 48.8171 3.99328 48.8493C3.49272 48.8727 3.28488 48.7234 3.34928 48.2111C3.38734 47.9008 3.3727 47.5876 3.38148 47.2744H5.19054C6.5927 47.2803 6.5927 47.2803 6.5927 48.6941V48.8493Z" fill="black"/>
<path d="M6.59277 48.8493C6.59277 48.7966 6.59277 48.7468 6.59277 48.6941L6.70986 48.7351H27.2886C28.2341 48.7351 28.2312 48.7351 28.2634 47.7545C28.2634 47.5876 28.2253 47.4061 28.3892 47.2832V48.8669L28.3541 49.3206C28.316 49.224 28.278 49.1245 28.2429 49.0279C28.0614 48.779 27.795 48.8756 27.5667 48.8756C20.8535 48.8756 14.1412 48.8756 7.42997 48.8756C7.20457 48.8756 6.93819 48.7615 6.76256 49.0249C6.73328 49.0718 6.70401 49.1157 6.67766 49.1625C6.65717 49.0601 6.62497 48.9547 6.59277 48.8493Z" fill="#8D867C"/>
<path d="M30.0112 32.0585C30.544 32.2342 31.2758 31.8361 31.6007 32.2576C31.87 32.6118 31.7266 33.2821 31.7676 33.8149C30.0112 33.7944 30.0112 33.7944 30.0112 32.0585Z" fill="black"/>
<path d="M25.0347 27.0821C25.5586 27.1055 26.2056 26.9445 26.5715 27.1992C26.9374 27.4539 26.6242 28.1418 26.7178 28.6307C26.7383 28.6996 26.7658 28.7663 26.7998 28.8297L26.7822 28.8473C25.0259 28.7799 25.0259 28.7799 25.0522 27.0909L25.0347 27.0821Z" fill="black"/>
<path d="M13.2873 2.08057L14.9559 2.14789C14.9559 2.68651 14.9559 3.22513 14.9559 3.76375C14.8095 3.77838 14.6631 3.80473 14.5226 3.80766C13.3869 3.83986 13.3722 3.83986 13.3517 2.68358C13.3517 2.37037 13.2639 2.18595 12.9653 2.09813L13.2873 2.08057Z" fill="#7796F3"/>
<path d="M3.35227 47.1368C2.81365 47.1163 2.13745 47.371 1.76569 47.0256C1.39393 46.6802 1.73349 46.0244 1.6164 45.5239L1.75984 45.4712L3.0654 45.4946C3.35813 45.5268 3.35813 45.7434 3.35813 45.9718C3.35813 46.3113 3.37276 46.648 3.38154 46.9875L3.35813 47.1397L3.35227 47.1368Z" fill="black"/>
<path d="M9.88057 27.103C10.103 27.5392 9.96838 28.0076 9.98888 28.4584C9.98888 28.7511 9.83666 28.833 9.57613 28.8301C9.16631 28.8301 8.7565 28.8301 8.34375 28.8301C8.34375 28.7569 8.34375 28.6867 8.34375 28.6135C8.3496 27.1147 8.3496 27.1147 9.88057 27.103Z" fill="black"/>
<path d="M4.98303 32.0586C5.0006 31.558 4.84545 30.9491 5.07671 30.5949C5.30796 30.2407 5.95489 30.5159 6.43203 30.4574C6.49188 30.4505 6.54936 30.4301 6.6001 30.3976C6.65083 30.3651 6.69347 30.3215 6.72476 30.27L6.90332 30.4603L6.72183 30.6623C6.51692 31.0926 6.8682 31.6693 6.53741 31.9825C6.20663 32.2957 5.60069 32.0088 5.13525 32.1493L4.98303 32.0586Z" fill="black"/>
<path d="M23.3515 25.4692H23.4247C25.0318 25.4692 25.0318 25.4692 25.0259 27.0822C24.4705 27.1364 23.9102 27.1157 23.3603 27.0207C23.4327 26.6058 23.4197 26.1805 23.3223 25.7707L23.3076 25.6185C23.326 25.5699 23.3407 25.52 23.3515 25.4692Z" fill="black"/>
<path d="M33.3654 45.5239C33.3654 45.5473 33.3654 45.5707 33.3654 45.5971C33.3654 47.1515 33.3654 47.1515 31.7729 47.1544V46.9817V45.5795L33.219 45.4976L33.3742 45.5298L33.3654 45.5239Z" fill="black"/>
<path d="M28.3892 30.4487H28.4594C30.046 30.4487 30.046 30.4487 30.0021 32.0587H28.3774C28.3774 31.526 28.3774 30.9903 28.4009 30.4575L28.3892 30.4487Z" fill="black"/>
<path d="M11.5694 27.0822H9.91846C9.96728 26.7922 9.98494 26.4978 9.97115 26.2041C9.86284 25.5279 10.1614 25.3493 10.7732 25.4342C11.0389 25.4571 11.3058 25.464 11.5724 25.4547L11.5694 27.0822Z" fill="#424D6B"/>
<path d="M26.791 28.8388C28.3454 28.7451 28.3454 28.7451 28.3893 30.4547L28.2429 30.4137C28.1841 30.3746 28.12 30.3441 28.0526 30.3229C26.8056 30.1678 26.8027 30.1707 26.7676 28.9296C26.769 28.9062 26.769 28.8827 26.7676 28.8593L26.791 28.8388Z" fill="black"/>
<path d="M6.88559 30.4459L6.70703 30.2557C6.70703 30.1415 6.70703 30.0303 6.70703 29.919C6.70703 29.8634 6.70703 29.8078 6.70703 29.7522V29.4243C6.90901 28.9618 7.58521 29.3628 7.76085 28.8389H8.3463V30.4401C8.31116 30.4554 8.27497 30.4681 8.23799 30.4781L6.88559 30.4459Z" fill="black"/>
<path d="M0.0386733 37.7637C0.249437 37.992 0.158691 38.273 0.158691 38.5306C0.158691 40.5007 0.158691 42.4707 0.158691 44.4408C0.150361 44.6107 0.155254 44.781 0.173327 44.9501C0.231873 45.3336 0.600709 45.2721 0.8144 45.2868C1.15104 45.3102 0.99589 44.9765 1.02809 44.7862C1.06614 44.5432 0.7178 44.4671 0.790982 44.1539C1.08371 44.1539 1.31496 44.4466 1.61647 44.3442V44.6369C1.54036 44.675 1.40864 44.7042 1.39985 44.754C1.36473 44.915 1.51109 44.9121 1.6194 44.9326V45.518C-0.00230857 45.518 -0.0052361 45.518 0.000618441 43.9022C0.0123275 41.8609 0.0250127 39.8147 0.0386733 37.7637Z" fill="black"/>
<path d="M4.97428 32.6441C4.56153 32.767 4.11951 32.8432 3.94095 33.3262C3.83849 33.6189 3.58675 33.4959 3.3877 33.5223V32.205C3.58675 32.1816 3.79751 32.2518 3.97315 32.1201H4.66984C4.8162 32.2723 5.03282 32.3748 4.97428 32.6441Z" fill="black"/>
<path d="M11.5693 27.0823V25.4723L11.6718 25.3143C11.9304 25.435 12.212 25.4986 12.4975 25.5006C12.7829 25.5026 13.0654 25.4431 13.3257 25.326C13.6179 25.2861 13.9146 25.295 14.2039 25.3523C14.482 25.4548 14.7249 25.0215 14.965 25.3523C14.4644 25.7124 13.835 25.2821 13.3316 25.6216C13.1161 25.6334 12.9001 25.6334 12.6846 25.6216C12.1577 25.5719 11.8621 25.6509 11.8562 26.3271C11.8504 27.0033 12.1489 27.1467 12.708 27.0794C12.8283 27.0736 12.9489 27.0795 13.0681 27.097C12.9021 27.1997 12.7024 27.2334 12.5119 27.1906C11.8474 27.0853 11.6747 27.4014 11.7245 28.0074C11.7479 28.265 11.8855 28.5928 11.5898 28.8036L11.5693 27.0823Z" fill="#79BBD0"/>
<path d="M33.5238 37.1757V45.4863L33.3657 45.5126V37.1699L33.515 37.1289L33.5238 37.1757Z" fill="black"/>
<path d="M6.70718 48.7443L6.59009 48.7033C6.59302 47.2806 6.59302 47.2806 5.19378 47.2806H3.37302C3.37302 47.2338 3.35253 47.187 3.34375 47.1401H3.36424H6.55496C6.86233 47.6378 6.63693 48.1998 6.70718 48.7443Z" fill="black"/>
<path d="M7.76402 28.8385C7.59424 29.3624 6.91218 28.9614 6.7102 29.4239C6.53749 28.2735 7.39518 28.9936 7.76402 28.8385Z" fill="black"/>
<path d="M1.61635 37.6207C1.30606 37.4773 1.05138 37.5329 0.890383 37.9573L0.597656 37.1816L0.919656 37.1406H1.16262L1.60756 37.164V37.1787L1.61635 37.6207Z" fill="black"/>
<path d="M4.97388 32.644C5.03242 32.3806 4.81581 32.2781 4.68115 32.1288L4.97388 32.0557L5.11731 32.1376L5.14366 32.1845L5.09097 33.815H5.05584L4.9973 33.651L4.97388 32.644Z" fill="#A0A1A6"/>
<path d="M28.2549 50.348C28.3046 50.1021 28.1876 49.8328 28.372 49.6074C28.372 49.9001 28.5652 50.2163 28.2549 50.4651C28.2607 50.4263 28.2607 50.3868 28.2549 50.348Z" fill="#8D867C"/>
<path d="M21.5222 2.07751C21.5544 1.8287 21.4344 1.55646 21.6481 1.33691C21.6481 1.5828 21.6481 1.82577 21.6481 2.06873L21.5222 2.07751Z" fill="black"/>
<path d="M3.98194 32.1199C3.79752 32.2516 3.58676 32.1814 3.39648 32.2048C3.55456 31.956 3.77117 32.0584 3.98194 32.1199Z" fill="#A0A1A6"/>
<path d="M6.68378 50.0615L6.78038 50.3543C6.78038 50.3865 6.75989 50.4187 6.75111 50.4509C6.55206 50.3513 6.61938 50.2079 6.68378 50.0615Z" fill="#8D867C"/>
<path d="M31.7674 46.9702V47.1429L31.665 47.2834H31.6181H31.5684C31.5684 47.2424 31.5976 47.2015 31.6093 47.1605L31.6708 46.9761H31.7586L31.7674 46.9702Z" fill="#8D867C"/>
<path d="M0.152857 37.1786L0.0240565 37.322C0.0182019 37.2196 0.0533294 37.1639 0.152857 37.1786Z" fill="black"/>
<path d="M33.5238 37.1376L33.3745 37.1786C33.3573 37.1521 33.3435 37.1236 33.3335 37.0937C33.3335 37.0937 33.3335 37.0615 33.354 37.0469L33.5238 37.1376Z" fill="#79BBD0"/>
<path d="M6.71579 29.752C6.71579 29.8076 6.71579 29.8632 6.71579 29.9188C6.69908 29.8809 6.68538 29.8418 6.6748 29.8017C6.67773 29.7871 6.70408 29.7695 6.71579 29.752Z" fill="black"/>
<path d="M31.6621 47.7371C31.6621 47.6669 31.6621 47.5966 31.6621 47.5264C31.679 47.5383 31.6928 47.554 31.7024 47.5724C31.7119 47.5907 31.7169 47.6111 31.7169 47.6317C31.7169 47.6524 31.7119 47.6728 31.7024 47.6911C31.6928 47.7095 31.679 47.7252 31.6621 47.7371Z" fill="#8D867C"/>
<path d="M21.6391 0.599206L21.522 0.48797C21.6156 0.470407 21.6566 0.502607 21.6391 0.599206Z" fill="black"/>
<path d="M6.68652 49.4731C6.70126 49.5031 6.71302 49.5345 6.72165 49.5668C6.72165 49.5668 6.69823 49.5902 6.68359 49.6049C6.68359 49.561 6.68359 49.5171 6.68652 49.4731Z" fill="#8D867C"/>
<path d="M13.4722 0.485131L13.3522 0.602221C13.3259 0.505621 13.3756 0.46464 13.4722 0.485131Z" fill="black"/>
<path d="M6.75098 50.4506C6.75098 50.4184 6.76854 50.3862 6.78025 50.354L6.88563 50.4594L6.8183 50.4769L6.75098 50.4506Z" fill="black"/>
<path d="M28.2548 50.3481C28.2606 50.387 28.2606 50.4264 28.2548 50.4652H28.1874L28.1201 50.4477L28.2548 50.3481Z" fill="black"/>
<path d="M6.70711 48.7441C6.63685 48.2084 6.86225 47.6463 6.56953 47.1282C6.41731 46.894 6.1802 46.9936 5.98407 46.9906C5.12346 46.9906 4.26284 46.9906 3.40222 46.9906C3.40222 46.6511 3.3788 46.3144 3.3788 45.9749C3.3788 45.7465 3.3788 45.5299 3.08608 45.4977C3.0015 45.4097 2.8988 45.341 2.78508 45.2965C2.67135 45.252 2.54933 45.2328 2.42744 45.2401C1.96786 45.2782 1.92102 45.0118 1.92395 44.6547C1.92395 42.4124 1.92395 40.173 1.92395 37.9219C1.92395 37.6292 1.90931 37.3365 2.35426 37.3365C2.72309 37.3365 2.9924 37.3102 3.17097 37.8078C3.31148 38.2 2.85775 38.6538 3.35538 38.9406V43.0388C3.23829 43.2876 2.81384 43.5482 3.38758 43.7619C3.44613 44.1658 3.76813 44.0546 4.00524 44.0546C4.59069 44.037 4.91855 44.2331 4.85415 44.883C4.83366 45.0996 4.74877 45.3748 5.04735 45.5124L8.34931 45.5241C8.34931 45.6704 8.34931 45.8168 8.34931 45.9632C8.34931 47.1633 8.34931 47.1604 9.54949 47.1575H25.0787C26.7179 47.1575 26.7179 47.1575 26.6506 45.5299C27.0429 45.5299 27.4322 45.5153 27.8215 45.5299C28.2108 45.5446 28.407 45.4333 28.407 45.0001C28.3894 43.1003 28.407 41.1946 28.407 39.2978C28.407 38.9084 28.2518 38.7679 27.8859 38.7943C27.6664 38.8089 27.4439 38.7796 27.2273 38.7943C26.7735 38.8411 26.6418 38.6421 26.6418 38.2088C26.6682 37.5765 26.6008 36.9355 26.6594 36.309C26.7267 35.5977 26.472 35.3167 25.7812 35.4308C25.2162 35.5216 24.9879 35.302 25.0377 34.7078C25.0874 34.1136 25.0084 33.4871 25.0582 32.8812C25.1079 32.2752 24.9264 31.9562 24.259 32.0645C23.5916 32.1728 23.173 31.9298 23.2959 31.1541C23.3779 30.6213 23.1701 30.3637 22.6139 30.4545C21.9055 30.5686 21.5367 30.3403 21.683 29.5763C21.7943 28.9908 21.5045 28.8328 20.9454 28.8474C19.751 28.8855 18.5538 28.8474 17.3624 28.8708C16.8325 28.8708 16.654 28.6923 16.7154 28.1946C16.7359 28.0245 16.7359 27.8525 16.7154 27.6824C16.6657 27.2316 16.8618 27.0969 17.3009 27.0969C17.983 27.1233 18.6679 27.0647 19.35 27.1145C19.9354 27.1584 20.073 26.93 20.0935 26.368C20.1228 25.6625 19.9062 25.3874 19.1978 25.4898C18.882 25.5118 18.5651 25.5118 18.2493 25.4898C16.7096 25.4898 16.7096 25.4898 16.7242 23.9589C16.7242 23.9325 16.7242 23.9062 16.7242 23.8798L20.0584 23.8213C20.5824 23.9472 21.1503 23.6896 21.6538 23.9999L21.7064 25.4635C22.2187 25.7562 22.7808 25.5191 23.3135 25.6011L23.3311 25.7679C23.2558 26.1826 23.2688 26.6085 23.3691 27.0179C23.9189 27.1139 24.4792 27.1356 25.0347 27.0823C25.0347 28.7772 25.0347 28.7772 26.7648 28.8386C26.6418 29.3831 26.5511 29.9246 26.8233 30.4574C27.1869 30.5849 27.5166 30.7939 27.787 31.0684C28.0574 31.3429 28.2615 31.6756 28.3835 32.0411H30.0082C30.0082 33.7799 30.0082 33.7799 31.7645 33.7974C31.7645 34.6756 31.7821 35.5538 31.7206 36.432C31.6767 37.0613 31.908 37.2633 32.4993 37.1813C32.6947 37.1704 32.8906 37.1772 33.0847 37.2018C33.2258 37.4599 33.2773 37.7574 33.2311 38.0478C33.2311 40.5282 33.2311 43.0076 33.2311 45.486L31.785 45.568C31.545 45.8285 31.7528 46.1534 31.6533 46.4462C31.5804 46.6398 31.4415 46.8015 31.261 46.9027C31.0805 47.004 30.8701 47.0382 30.6668 46.9994C30.0135 46.9643 29.3588 46.9643 28.7055 46.9994C28.6382 46.9994 28.4128 46.8501 28.4714 47.1341L28.4362 47.2921H28.404C28.2401 47.4151 28.284 47.5849 28.2782 47.7634C28.246 48.7441 28.2489 48.7441 27.3034 48.7441H6.70711ZM4.49117 44.4585L4.36822 44.4059C4.35066 44.4468 4.3126 44.4966 4.32431 44.5259C4.33602 44.5551 4.39749 44.5639 4.43847 44.5815L4.49117 44.4585Z" fill="#3E90F0"/>
<path d="M8.34938 45.5241H5.02986C5.00644 45.0001 5.15866 44.3531 4.91276 43.9872C4.60247 43.5101 3.89407 43.8994 3.37302 43.7794C3.37302 43.5394 3.35253 43.2993 3.34082 43.0564V38.9582C3.34082 38.3727 3.36131 37.7873 3.37009 37.2018C3.6831 37.1857 3.99674 37.1857 4.30975 37.2018C4.8952 37.2545 5.05035 37.0086 5.02986 36.4495C4.99473 35.586 5.02986 34.7195 5.0562 33.856H5.09426L6.59009 33.812C6.99698 33.7067 6.8272 33.37 6.81549 33.1476C6.77451 32.4655 6.96185 32.1142 7.7288 32.2987C7.91029 32.3426 8.23814 32.4831 8.31425 32.0937C8.34645 31.561 8.44305 31.0282 8.244 30.5101C8.28097 30.5 8.31717 30.4873 8.35231 30.472C8.52209 30.472 8.69187 30.4925 8.86165 30.4984C10.0091 30.5247 10.0326 30.5218 10.056 29.3919C10.056 28.9586 10.2316 28.8474 10.6239 28.8708C10.9371 28.8884 11.2532 28.8533 11.5694 28.8415C11.8621 28.622 11.7275 28.3029 11.704 28.0453C11.6543 27.4394 11.827 27.1232 12.4915 27.2286C12.682 27.2713 12.8816 27.2377 13.0477 27.1349C13.2731 27.1349 13.3404 27.0179 13.3404 26.8188C13.3404 26.4353 13.3404 26.0489 13.3228 25.6655C13.8263 25.3259 14.4557 25.7562 14.9562 25.3961C15.1333 24.9052 15.1333 24.3678 14.9562 23.8769C15.0637 23.4914 15.1063 23.0908 15.0821 22.6913C15.0821 16.9539 15.0821 11.2155 15.0821 5.47607H16.5457C16.7506 5.7688 16.6833 6.08495 16.6833 6.39524C16.6833 12.2225 16.6833 18.0497 16.6833 23.8769C16.6833 23.9032 16.6833 23.9296 16.6833 23.9559C16.4667 24.1521 16.5779 24.4126 16.575 24.6409C16.5604 25.7591 16.5311 26.8803 16.575 27.9985C16.6043 28.6571 16.4228 28.9616 15.7378 28.8415C15.1524 28.742 14.924 29.0025 15.0177 29.5675C15.1494 30.352 14.7601 30.5803 14.0634 30.4662C13.4516 30.3667 13.1852 30.6096 13.2994 31.2185C13.4223 31.9123 13.1677 32.2108 12.4476 32.0967C11.8621 31.9971 11.6045 32.2606 11.6484 32.8753C11.6894 33.4315 11.6484 33.9935 11.6484 34.5527C11.6484 35.5245 11.6484 35.5508 10.6941 35.5333C10.1965 35.5333 9.9828 35.665 10.0209 36.189C10.0589 36.713 10.0209 37.2604 10.0209 37.7961C10.0209 38.885 10.1614 38.8323 8.99923 38.7972C8.46354 38.7796 8.28791 38.9143 8.29962 39.4763C8.37865 41.4756 8.34938 43.4955 8.34938 45.5241Z" fill="#F4FCFA"/>
<path d="M16.6952 23.8622C16.6952 18.037 16.6952 12.2098 16.6952 6.38059C16.6952 6.0703 16.7625 5.74244 16.5576 5.46143H20.0469C20.0469 11.5775 20.0469 17.6935 20.0469 23.8096L16.6952 23.8622Z" fill="#B7D2F8"/>
<path d="M15.082 5.47021C15.082 11.2077 15.082 16.948 15.082 22.6913C15.0963 23.0791 15.0479 23.4665 14.9386 23.8388H13.352C13.352 19.1376 13.3442 14.4345 13.3286 9.72939C13.3286 8.34186 13.3286 6.95433 13.355 5.56681L13.4662 5.46143H14.6517C14.6956 5.52583 14.7396 5.5229 14.7805 5.46143L15.082 5.47021Z" fill="#C0FBFC"/>
<path d="M20.0586 23.8213C20.0586 17.7072 20.0586 11.5911 20.0586 5.47314C21.692 5.34141 21.692 5.34141 21.692 6.93678C21.692 12.6274 21.6842 18.319 21.6686 24.0115C21.1446 23.6895 20.5767 23.9471 20.0586 23.8213Z" fill="#7796F3"/>
<path d="M14.9443 3.76371C14.9443 3.22509 14.9443 2.68647 14.9443 2.14786C16.6041 2.06589 18.2609 2.08346 19.9207 2.14786C20.1079 2.68025 20.1079 3.26059 19.9207 3.79298L14.9443 3.76371Z" fill="#B7D2F8"/>
<path d="M19.9297 3.78424C20.1169 3.25184 20.1169 2.6715 19.9297 2.13911L21.5221 2.07764H21.6714C21.6714 2.1274 21.6714 2.17716 21.6714 2.224C21.6743 3.8984 21.6743 3.8984 19.9297 3.78424Z" fill="#7796F3"/>
<path d="M13.355 23.8447H14.9415C15.1186 24.3357 15.1186 24.873 14.9415 25.364C14.7015 25.0273 14.4585 25.4606 14.1804 25.364C13.8994 25.3053 13.6108 25.2925 13.3257 25.3259C13.3257 24.8283 13.3432 24.3365 13.355 23.8447Z" fill="#48BBEC"/>
<path d="M23.3078 25.6185C22.775 25.5366 22.213 25.7766 21.7007 25.481H23.3517C23.3403 25.5278 23.3256 25.5738 23.3078 25.6185Z" fill="#A0A1A6"/>
<path d="M14.789 5.46716C14.748 5.53156 14.7041 5.53449 14.6602 5.46716C14.6791 5.4542 14.7016 5.44727 14.7246 5.44727C14.7475 5.44727 14.77 5.4542 14.789 5.46716Z" fill="#B7D2F8"/>
<path d="M13.4691 5.4675L13.3579 5.57288C13.3432 5.48214 13.3754 5.43823 13.4691 5.4675Z" fill="#B7D2F8"/>
<path d="M6.77148 49.0367C6.94712 48.7732 7.2135 48.8874 7.4389 48.8874C14.1502 48.8874 20.8624 48.8874 27.5756 48.8874C27.8039 48.8874 28.0703 48.7908 28.2518 49.0396L6.77148 49.0367Z" fill="black"/>
<path d="M3.37305 37.1641C3.37305 37.7495 3.35256 38.335 3.34378 38.9204C2.84615 38.6277 3.29987 38.1798 3.15936 37.7876C2.9808 37.2899 2.71149 37.3221 2.34266 37.3163C1.90942 37.328 1.90942 37.6207 1.90942 37.9134C1.90942 40.1557 1.90942 42.3951 1.90942 44.6462C1.90942 45.0091 1.95333 45.2755 2.41291 45.2316C2.5348 45.2243 2.65682 45.2435 2.77054 45.288C2.88427 45.3325 2.98697 45.4011 3.07155 45.4892L1.76598 45.4658C1.76598 43.4548 1.76598 41.4467 1.76598 39.4356C1.76598 39.0814 1.86844 38.7097 1.67524 38.3701C1.65182 38.1213 1.63133 37.8695 1.60791 37.6207C1.60791 37.4744 1.60791 37.328 1.62255 37.1787L3.37305 37.1641Z" fill="#48BBEC"/>
<path d="M1.67524 38.3638C1.86844 38.7033 1.76306 39.0751 1.76599 39.4293C1.76599 41.4403 1.76599 43.4484 1.76599 45.4595L1.6167 45.5239V44.353L1.67524 38.3638Z" fill="#3EC5F0"/>
<path d="M5.05616 33.8148C5.05616 34.693 4.99468 35.5448 5.02981 36.4084C5.0503 36.9675 4.88638 37.2134 4.3097 37.1607C3.99669 37.1446 3.68306 37.1446 3.37005 37.1607C3.37005 36.2474 3.40225 35.3311 3.37005 34.4207C3.34663 33.8968 3.53983 33.7475 4.02869 33.7885C4.36009 33.8649 4.70814 33.8137 5.00347 33.645L5.05616 33.8148Z" fill="#48BBEC"/>
<path d="M33.2313 45.4863C33.2313 43.0079 33.2313 40.5285 33.2313 38.0481C33.2775 37.7577 33.226 37.4602 33.085 37.2021L33.3777 37.1699V45.5244L33.2313 45.4863Z" fill="#79BBD0"/>
<path d="M28.4219 47.2806L28.457 47.1226L31.6126 47.1577C31.6126 47.1987 31.5863 47.2396 31.5716 47.2806H28.4219Z" fill="black"/>
<path d="M26.8174 30.4635C26.5451 29.9307 26.6359 29.3892 26.7588 28.8447C26.7603 28.8681 26.7603 28.8916 26.7588 28.915C26.7939 30.1561 26.7969 30.1532 28.0439 30.3084C28.1118 30.3294 28.1761 30.361 28.2342 30.402L26.8174 30.4635Z" fill="black"/>
<path d="M3.39939 46.9875C4.26001 46.9875 5.12063 46.9875 5.98124 46.9875C6.1803 46.9875 6.41741 46.8909 6.5667 47.1251H3.37305L3.39939 46.9875Z" fill="#79BBD0"/>
<path d="M8.24385 30.4663C8.44291 30.9844 8.34631 31.5172 8.31411 32.0499C6.79485 32.0499 6.79485 32.0499 6.71289 30.6478L6.89438 30.4458L8.24385 30.4663Z" fill="#3EC5F0"/>
<path d="M6.71304 30.6479C6.79501 32.0384 6.79501 32.0384 8.31426 32.0501C8.23815 32.4394 7.9103 32.2989 7.72881 32.255C6.96186 32.0706 6.77452 32.4219 6.8155 33.1039C6.8155 33.3264 6.99699 33.663 6.5901 33.7684C6.5901 32.214 6.85355 32.214 5.15281 32.1789L5.12646 32.1321C5.5919 31.9945 6.17443 32.3019 6.52863 31.9681C6.88283 31.6344 6.50814 31.0783 6.71304 30.6479Z" fill="#79BBD0"/>
<path d="M23.3631 27.0209C23.2628 26.6116 23.2498 26.1857 23.3251 25.771C23.4225 26.1807 23.4355 26.606 23.3631 27.0209Z" fill="#A0A1A6"/>
<path d="M31.6387 46.4373C31.7382 46.1445 31.5304 45.8284 31.7704 45.5591V46.9612H31.6826L31.6387 46.4373Z" fill="black"/>
<path d="M26.8174 30.4633L28.2547 30.4077L28.401 30.4458C28.401 30.9785 28.3835 31.5142 28.3776 32.047C28.2556 31.6815 28.0515 31.3488 27.7811 31.0743C27.5106 30.7998 27.181 30.5908 26.8174 30.4633Z" fill="#79BBD0"/>
<path d="M1.61646 44.646V44.9387C1.50816 44.9182 1.36179 44.9212 1.39692 44.7602C1.41741 44.7016 1.54914 44.6723 1.61646 44.646Z" fill="black"/>
<path d="M13.3256 25.6188C13.3256 26.0023 13.3256 26.3887 13.3432 26.7721C13.3432 26.9712 13.2876 27.1029 13.0505 27.0883C12.9313 27.0708 12.8107 27.0649 12.6904 27.0707C12.1225 27.138 11.8298 27.0209 11.8386 26.3184C11.8474 25.6159 12.1313 25.5632 12.667 25.6129C12.8863 25.627 13.1061 25.629 13.3256 25.6188Z" fill="#3EC5F0"/>
<path d="M5.15278 32.1787C6.85353 32.2138 6.57836 32.2138 6.59007 33.7682L5.09424 33.8121C5.1118 33.2677 5.12937 32.7232 5.15278 32.1787Z" fill="#3EC5F0"/>
<path d="M31.6387 46.4375L31.6738 46.9703L31.6123 47.1576L28.4567 47.1225C28.3865 46.8298 28.6236 46.9878 28.6909 46.9878C29.3442 46.9527 29.9989 46.9527 30.6522 46.9878C30.8551 47.0268 31.0652 46.993 31.2456 46.8923C31.4261 46.7917 31.5652 46.6306 31.6387 46.4375Z" fill="#79BBD0"/>
<path d="M8.3496 45.5242C8.3496 43.5044 8.36716 41.4845 8.33203 39.4647C8.33203 38.9027 8.49596 38.768 9.03165 38.7856C10.2026 38.8207 10.0416 38.8734 10.0533 37.7845C10.0533 37.2488 10.0825 36.7102 10.0533 36.1774C10.024 35.6446 10.2289 35.5129 10.7265 35.5217C11.6808 35.5393 11.6808 35.5217 11.6808 34.5411C11.6808 33.9819 11.713 33.4199 11.6808 32.8637C11.6369 32.249 11.8828 31.9855 12.48 32.0851C13.2001 32.2051 13.4548 31.9065 13.3318 31.2069C13.2264 30.598 13.484 30.3551 14.0958 30.4546C14.7925 30.5687 15.1818 30.3404 15.0501 29.5559C14.9564 28.9909 15.1877 28.7304 15.7702 28.83C16.4552 28.95 16.6484 28.6455 16.6074 27.9869C16.5577 26.8687 16.5869 25.7475 16.6074 24.6293C16.6074 24.401 16.4991 24.1405 16.7157 23.9443C16.7157 25.4753 16.7157 25.4753 18.2408 25.4753C18.5566 25.4973 18.8735 25.4973 19.1893 25.4753C19.8977 25.3787 20.1143 25.6539 20.085 26.3535C20.0645 26.9155 19.9387 27.1438 19.3415 27.0999C18.6624 27.0502 17.9774 27.0999 17.2924 27.0824C16.8504 27.0648 16.6543 27.2141 16.707 27.6678C16.7274 27.838 16.7274 28.01 16.707 28.1801C16.6455 28.6777 16.824 28.8709 17.3539 28.8563C18.5453 28.8212 19.7425 28.8563 20.9369 28.8329C21.496 28.8329 21.7858 28.9646 21.6745 29.5618C21.5282 30.3404 21.897 30.5687 22.6054 30.4399C23.1616 30.3492 23.3694 30.6068 23.2875 31.1396C23.1645 31.9153 23.548 32.1641 24.2505 32.0499C24.9531 31.9358 25.1053 32.2373 25.0497 32.8667C24.9941 33.496 25.0789 34.0873 25.0292 34.6933C24.9794 35.2992 25.2077 35.5071 25.7727 35.4163C26.4753 35.2992 26.7299 35.5802 26.6509 36.2945C26.5923 36.9209 26.6509 37.562 26.6333 38.1943C26.6158 38.6334 26.7621 38.8324 27.2188 38.7797C27.4354 38.7593 27.6579 38.7797 27.8774 38.7797C28.2433 38.7534 28.4014 38.8939 28.3985 39.2832C28.3985 41.183 28.3985 43.0887 28.3985 44.9856C28.3985 45.4188 28.2141 45.5359 27.813 45.5154C27.412 45.4949 27.0344 45.5154 26.6421 45.5154H8.3496V45.5242Z" fill="#48CDF7"/>
<path d="M8.34912 45.5239H26.6563C26.7236 47.1515 26.7236 47.1515 25.0843 47.1515H9.56979C8.37547 47.1515 8.37547 47.1515 8.36961 45.9572C8.34912 45.8167 8.34912 45.6557 8.34912 45.5239Z" fill="#F6FCF8"/>
<path d="M3.37305 43.7679C3.8941 43.8879 4.6025 43.4986 4.91279 43.9757C5.15868 44.3504 5.00646 44.9886 5.02988 45.5125C4.73715 45.375 4.81912 45.0998 4.83961 44.8832C4.90401 44.2333 4.57616 44.0372 3.9907 44.0548C3.7653 44.0606 3.4433 44.1631 3.37305 43.7679Z" fill="#48BBEC"/>
<path d="M3.34949 43.0332C3.34949 43.2762 3.36998 43.5162 3.38169 43.7562C2.80794 43.5425 3.2324 43.282 3.34949 43.0332Z" fill="#48BBEC"/>
<path d="M4.49099 44.4497L4.4383 44.5726C4.39732 44.555 4.33292 44.5463 4.32414 44.517C4.31536 44.4877 4.35049 44.438 4.36805 44.397L4.49099 44.4497Z" fill="#48BBEC"/>
</g>
<defs>
<clipPath id="clip0_24_36718">
<rect width="35.0096" height="50" fill="white" transform="translate(0 0.47998)"/>
</clipPath>
</defs>
</svg>
